<?xml version="1.0" encoding="UTF-8"?>
<svg version="1.1" xmlns="http://www.w3.org/2000/svg" width="3032" height="8078">
<path d="M0 0 C1.99058047 -0.00702052 3.98116071 -0.01410735 5.97174072 -0.02125549 C12.30017417 -0.04066433 18.62857104 -0.04568962 24.95703125 -0.046875 C26.03472401 -0.04731686 27.11241676 -0.04775871 28.22276688 -0.04821396 C59.23940716 -0.05488606 90.13512985 0.05608148 121.04266357 2.94989014 C123.92363566 3.21743615 126.80560803 3.47124404 129.68798828 3.72314453 C220.59624025 11.74476794 310.01312577 30.02510968 536.76953125 112.203125 C537.42377075 112.5034967 538.07801025 112.80386841 538.7520752 113.11334229 C567.88987208 126.49543618 596.48938479 140.76699202 624.27929688 156.78027344 C627.41240357 158.5704446 630.57153246 160.31031895 633.73510742 162.04589844 C644.25082641 167.81850936 654.53910686 173.94062779 664.76953125 180.203125 C666.12594727 181.03191162 666.12594727 181.03191162 667.50976562 181.87744141 C691.82463185 196.78023781 715.55428674 212.64161161 738.76953125 229.203125 C739.91204346 230.01571777 739.91204346 230.01571777 741.07763672 230.84472656 C751.41344674 238.2065638 761.57805628 245.76892516 771.61328125 253.53515625 C773.81852413 255.24102348 776.02828453 256.94092266 778.23828125 258.640625 C792.52534429 269.65841836 806.43147234 281.12158908 820.15722656 292.82910156 C821.85624714 294.27702522 823.55896805 295.72052812 825.26171875 297.1640625 C831.91999439 302.82364236 838.45430613 308.58594891 844.85546875 314.53515625 C847.05067492 316.54497638 849.26387514 318.51265644 851.51049805 320.46337891 C865.53558858 332.72301974 878.6676894 345.94072082 891.81811523 359.12133789 C894.34920849 361.65818971 896.88485375 364.19043723 899.42179203 366.72144222 C901.40977443 368.7057894 903.39534279 370.69253843 905.3802166 372.67999458 C906.76076801 374.06151832 908.14329909 375.4410629 909.52589417 376.82054138 C913.93470479 381.24572559 918.21554786 385.72145172 922.27503967 390.47052002 C924.80576434 393.40445837 927.48620557 396.19779164 930.14453125 399.015625 C934.85106399 404.04001201 939.29811189 409.19295891 943.6015625 414.5703125 C945.85985588 417.31281654 948.22734459 419.9125009 950.64453125 422.515625 C954.80759807 427.04376076 958.63167431 431.73825771 962.38891602 436.60009766 C965.4558664 440.55995765 968.60508082 444.43551573 971.81738281 448.27832031 C979.27781407 457.20854323 986.2273394 466.43750618 993.0546875 475.85742188 C994.67810958 478.07807098 996.32648742 480.27672611 997.98828125 482.46875 C1020.374466 512.1163189 1040.44234756 543.92096075 1058.76953125 576.203125 C1059.40117187 577.3154248 1060.0328125 578.42772461 1060.68359375 579.57373047 C1083.49141433 619.92471783 1102.9528821 661.62434208 1118.76953125 705.203125 C1119.02798828 705.91426453 1119.28644531 706.62540405 1119.55273438 707.35809326 C1127.75798466 729.99734563 1134.81265623 752.87079379 1140.76953125 776.203125 C1140.95151062 776.91559387 1141.13348999 777.62806274 1141.32098389 778.36212158 C1160.30130069 853.13520469 1166.22248641 931.73202149 1101.76953125 1183.203125 C1101.3214209 1184.10337402 1100.87331055 1185.00362305 1100.41162109 1185.93115234 C1090.27926543 1206.13204371 1078.67563615 1225.64904141 1065.76953125 1244.203125 C1065.29950684 1244.8827832 1064.82948242 1245.56244141 1064.34521484 1246.26269531 C1055.3070966 1259.30697784 1045.75537826 1271.86766693 1035.76953125 1284.203125 C1035.05023437 1285.09773438 1034.3309375 1285.99234375 1033.58984375 1286.9140625 C1029.1649801 1292.38007054 1024.60993111 1297.68335286 1019.875 1302.8828125 C1018.0403544 1304.90466684 1016.24184339 1306.94991022 1014.45703125 1309.015625 C1005.7373014 1319.0005238 996.58442497 1328.55433378 987.1953125 1337.90771484 C985.50271778 1339.59488458 983.81562528 1341.28742696 982.12890625 1342.98046875 C976.50911596 1348.60369842 970.82199377 1354.04245472 964.76953125 1359.203125 C962.99382904 1360.82280317 961.22244818 1362.44724218 959.45703125 1364.078125 C954.57065127 1368.53001155 949.53417582 1372.7361563 944.38916016 1376.88378906 C942.57968317 1378.35777363 940.7891952 1379.85302754 939 1381.3515625 C928.20974717 1390.36856943 917.09326593 1398.8689293 905.76953125 1407.203125 C905.04217773 1407.74259766 904.31482422 1408.28207031 903.56542969 1408.83789062 C882.42449629 1424.50579051 860.55937041 1438.67404552 837.63867188 1451.58251953 C826.75064129 1457.73251502 816.0409448 1464.06116173 805.76953125 1471.203125 C804.98707031 1471.72519531 804.20460938 1472.24726562 803.3984375 1472.78515625 C792.20432364 1480.56968681 790.4507274 1493.97128917 788.16188049 1506.64915466 C787.41595172 1510.91549851 786.6853615 1515.1842436 785.96505737 1519.45498657 C784.99793986 1525.17290395 783.99951398 1530.8853261 783 1536.59765625 C782.70824638 1538.26615883 782.70824638 1538.26615883 782.41059875 1539.96836853 C769.4610605 1613.63198837 743.45976336 1687.86030548 698.95703125 1748.640625 C687.77570305 1763.93249431 679.30860976 1778.47062813 681.76953125 1798.203125 C682.4836794 1801.71408737 683.40044689 1805.15765349 684.34375 1808.61328125 C684.60906021 1809.60702255 684.87437042 1810.60076385 685.14772034 1811.62461853 C688.04945744 1822.41000563 691.14470134 1833.14103078 694.23370361 1843.87390137 C708.04608747 1892.00547287 716.48281325 1939.43727857 719.51464844 1989.42895508 C719.78140999 1992.90740876 719.78140999 1992.90740876 720.76953125 1996.203125 C722.65621787 1997.63598151 722.65621787 1997.63598151 725.08984375 1998.7265625 C726.46438721 1999.41105469 726.46438721 1999.41105469 727.86669922 2000.109375 C728.86588379 2000.5940625 729.86506836 2001.07875 730.89453125 2001.578125 C757.75302377 2015.10622397 783.38650774 2031.76167617 805.55859375 2052.17578125 C807.50936036 2053.9645584 809.4993352 2055.68155619 811.51953125 2057.390625 C821.51942776 2066.13292804 830.61116662 2075.73033068 838.76953125 2086.203125 C839.64810598 2087.29298559 840.52839987 2088.38146192 841.41015625 2089.46875 C885.10782537 2143.67014933 901.78238219 2211.01109072 907.76953125 2279.203125 C907.83624023 2279.93772949 907.90294922 2280.67233398 907.97167969 2281.42919922 C908.34836328 2285.6830491 908.58674004 2289.93738432 908.76953125 2294.203125 C908.81319824 2295.17572266 908.85686523 2296.14832031 908.90185547 2297.15039062 C911.21735876 2350.63305929 908.68629618 2404.17667257 906.46728516 2457.625 C906.21278968 2463.81696374 905.98878882 2470.00982396 905.76953125 2476.203125 C905.72694183 2477.3774194 905.68435242 2478.55171379 905.64047241 2479.76159286 C904.56893584 2510.46295851 904.62112082 2541.16988228 904.63438793 2571.88550393 C904.63663914 2577.33802863 904.63656909 2582.7905495 904.63508606 2588.24307442 C904.63487157 2589.03495847 904.63465708 2589.82684251 904.63443609 2590.64272305 C904.63399025 2592.25678933 904.63354048 2593.87085561 904.63308683 2595.48492189 C904.62816803 2614.23529412 904.6341203 2632.98565778 904.64161395 2651.73602842 C904.64507333 2660.62491403 904.64688324 2669.5137998 904.64867567 2678.40268587 C904.66819285 2772.73728919 904.75136847 2867.07158056 905.76953125 3050.203125 C905.77730591 3051.32451779 905.78508057 3052.44591059 905.79309082 3053.60128498 C906.60282354 3170.08273236 907.77560117 3286.55980614 913.76953125 3658.203125 C913.78724925 3659.0479843 913.80496725 3659.89284361 913.82322216 3660.76330471 C915.7123118 3750.73764557 917.89563622 3840.70525722 1004.15421736 5364.57762158 C1005.04078059 5374.27956948 1005.92684044 5383.98156332 1006.8125 5393.68359375 C1006.91176938 5394.77101419 1007.01103876 5395.85843463 1007.1133163 5396.97880721 C1010.47373544 5433.79599405 1013.78655829 5470.61730547 1017.0703125 5507.44140625 C1017.23662776 5509.30644487 1017.23662776 5509.30644487 1017.40630293 5511.20916104 C1018.52900022 5523.80008102 1019.6509103 5536.39107107 1020.77243769 5548.9820953 C1033.7903793 5695.22630416 1033.7903793 5695.22630416 1111.67733765 6402.45767212 C1122.22581281 6466.72026293 1129.13120723 6531.29344098 1135.68574524 6596.06622314 C1136.41156092 6603.2361178 1137.14038644 6610.40570663 1137.87057495 6617.57515717 C1138.05306152 6619.36731978 1138.23537382 6621.15950015 1138.41751099 6622.9516983 C1141.76117932 6655.83356278 1145.59382802 6688.64621319 1149.70690155 6721.44054413 C1157.41741825 6782.95178087 1157.41741825 6782.95178087 1157.14453125 6813.640625 C1157.13987854 6814.60684784 1157.13522583 6815.57307068 1157.13043213 6816.568573 C1156.66271131 6900.38225914 1123.05522934 6975.64305791 1069.76953125 7039.203125 C1068.31081145 7041.01531398 1066.85248779 7042.8278219 1065.39453125 7044.640625 C1061.28869594 7049.66524863 1056.9636495 7054.43766772 1052.54296875 7059.18359375 C1050.51849151 7061.36180564 1048.57177625 7063.59370643 1046.63671875 7065.8515625 C1042.30677916 7070.81763483 1037.67621652 7075.4825022 1033.01904297 7080.13891602 C1031.53059888 7081.62954115 1030.05035848 7083.12799517 1028.5703125 7084.62695312 C1022.29777995 7090.93576338 1015.74832108 7096.67066204 1008.76953125 7102.203125 C1007.26763788 7103.45084946 1005.7673484 7104.70051022 1004.26953125 7105.953125 C945.27644557 7152.84983665 872.40005713 7172.6177323 799.89453125 7187.328125 C798.90952637 7187.52833252 797.92452148 7187.72854004 796.90966797 7187.93481445 C792.76290164 7188.7444069 789.00240788 7189.23673444 784.76953125 7189.203125 C784.77367932 7190.40350529 784.77367932 7190.40350529 784.77791119 7191.62813568 C784.84467382 7211.25890666 784.89405307 7230.88965446 784.92496777 7250.52051544 C784.94032193 7260.0145327 784.96118708 7269.50847338 784.99584961 7279.00244141 C785.02610831 7287.29429068 785.04518895 7295.58608442 785.05179673 7303.87798738 C785.05564851 7308.25313494 785.06444883 7312.62812384 785.08672142 7317.0032196 C785.43141066 7387.58012475 769.6639616 7454.0099143 731.76953125 7514.203125 C731.37137207 7514.83702148 730.97321289 7515.47091797 730.56298828 7516.12402344 C720.23622919 7532.3921478 708.62368151 7547.85461825 695.76953125 7562.203125 C694.90199219 7563.18152344 694.03445312 7564.15992187 693.140625 7565.16796875 C682.96662083 7576.46399424 672.42698803 7587.68108177 660.44921875 7597.08203125 C658.00507238 7599.01668355 655.64724211 7601.02685501 653.29760742 7603.07446289 C634.03485135 7619.77082261 612.12966378 7633.09255259 589.76953125 7645.203125 C588.68510742 7645.79746338 587.60068359 7646.39180176 586.48339844 7647.00415039 C577.74836347 7651.75843684 568.89039099 7656.05497635 559.76953125 7660.015625 C558.74623718 7660.46125793 558.74623718 7660.46125793 557.70227051 7660.91589355 C500.54829831 7685.70203817 439.08848124 7698.82232743 377.07446289 7703.26660156 C375.76985107 7703.36424805 374.46523926 7703.46189453 373.12109375 7703.5625 C371.98494629 7703.63952148 370.84879883 7703.71654297 369.67822266 7703.79589844 C365.54850388 7704.37407293 363.52266745 7705.29224775 360.8671875 7708.50390625 C351.17777802 7722.84274446 342.27140101 7737.66467151 333.39453125 7752.515625 C314.86291658 7783.4921754 295.72378335 7814.48862712 273.03369141 7842.63476562 C271.83947259 7844.11635343 270.65383619 7845.60484715 269.46875 7847.09375 C264.28040735 7853.54462008 258.77812669 7859.6617137 253.14160156 7865.71777344 C251.84591398 7867.12043594 250.5688133 7868.54020209 249.29296875 7869.9609375 C243.408714 7876.5010225 237.29302539 7882.78487731 231.08203125 7889.015625 C230.28603516 7889.81621338 229.49003906 7890.61680176 228.66992188 7891.44165039 C224.42396743 7895.67657523 220.09986252 7899.752565 215.55395508 7903.66381836 C213.13800196 7905.74790433 210.80053892 7907.91320501 208.45703125 7910.078125 C203.05455605 7914.99889802 197.46715544 7919.6301299 191.76953125 7924.203125 C190.63754339 7925.12701949 189.50605638 7926.0515279 188.375 7926.9765625 C159.47003594 7950.50631347 127.85083198 7969.60160023 94.578125 7986.29559326 C93.36927114 7986.90218236 92.16093961 7987.50981347 90.953125 7988.11846924 C18.75581087 8024.49432619 -58.79253108 8048.27415921 -232.41796875 8075.453125 C-233.91372437 8075.57788712 -233.91372437 8075.57788712 -235.43969727 8075.70516968 C-238.34221268 8075.94417244 -241.24515156 8076.1768097 -244.1484375 8076.40625 C-245.38269722 8076.50589806 -245.38269722 8076.50589806 -246.64189148 8076.6075592 C-262.446134 8077.82032349 -278.24256142 8078.36639933 -294.08984375 8078.40625 C-295.83619713 8078.41327709 -297.58255028 8078.42036386 -299.3289032 8078.42750549 C-304.87942886 8078.44689335 -310.42991263 8078.45194021 -315.98046875 8078.453125 C-316.92792591 8078.45356686 -317.87538307 8078.45400871 -318.85155106 8078.45446396 C-348.74887246 8078.46176979 -378.44382068 8078.01244515 -408.23046875 8075.203125 C-409.15647888 8075.11826843 -410.08248901 8075.03341187 -411.03656006 8074.94598389 C-453.09679581 8071.08976839 -494.90714786 8064.95639501 -536.23046875 8056.203125 C-537.01834778 8056.03661438 -537.80622681 8055.87010376 -538.61798096 8055.69854736 C-621.14768642 8038.20123619 -700.86129493 8011.06380897 -909.23046875 7897.203125 C-910.05998047 7896.63770996 -910.88949219 7896.07229492 -911.74414062 7895.48974609 C-924.10358128 7887.03062072 -936.08086748 7878.12693383 -947.93310547 7868.97314453 C-949.94324257 7867.42442041 -951.96068816 7865.88641254 -953.984375 7864.35546875 C-960.54020519 7859.38608232 -966.86729063 7854.20068324 -973.11328125 7848.8515625 C-975.94191285 7846.43373525 -978.8287376 7844.09542074 -981.73046875 7841.765625 C-987.11189079 7837.38978255 -992.17045444 7832.71003685 -997.23828125 7827.98046875 C-1000.15571812 7825.26025425 -1003.1431782 7822.63198929 -1006.1640625 7820.02734375 C-1008.2609071 7818.17625409 -1010.30317207 7816.27244436 -1012.34521484 7814.36132812 C-1018.79032025 7808.35173097 -1025.54175596 7802.86551803 -1032.53515625 7797.50878906 C-1034.10040077 7796.30329832 -1035.65054816 7795.07827263 -1037.19921875 7793.8515625 C-1052.71023047 7781.64684538 -1069.09333181 7770.65443584 -1086.02685547 7760.53613281 C-1089.90228621 7758.19181065 -1093.72052507 7755.75754755 -1097.54296875 7753.328125 C-1102.35581578 7750.27026315 -1107.17414458 7747.22598322 -1112.04296875 7744.2578125 C-1133.37344851 7731.24428224 -1154.57965717 7717.66767346 -1174.23046875 7702.203125 C-1175.55691406 7701.17445312 -1175.55691406 7701.17445312 -1176.91015625 7700.125 C-1187.44066627 7691.84862471 -1197.51418661 7683.01289919 -1207.26074219 7673.83129883 C-1210.12511823 7671.1358985 -1213.02308499 7668.49635789 -1215.99487305 7665.91943359 C-1229.71295434 7653.93823175 -1242.56724333 7641.02773498 -1255.42456055 7628.1394043 C-1257.83458438 7625.7236188 -1260.24916347 7623.31244344 -1262.66503239 7620.90250492 C-1265.01350706 7618.55853657 -1267.35814006 7616.21074089 -1269.703125 7613.86328125 C-1270.55737564 7613.01105484 -1271.41162628 7612.15882843 -1272.29176331 7611.28077698 C-1276.59057847 7606.96520627 -1280.75175775 7602.58930941 -1284.71372986 7597.96141052 C-1287.30019612 7594.96303934 -1290.02239777 7592.09129842 -1292.73046875 7589.203125 C-1297.32266277 7584.27776798 -1301.84680636 7579.31585966 -1306.23046875 7574.203125 C-1307.1299002 7573.16900275 -1308.02967199 7572.13517647 -1308.9296875 7571.1015625 C-1314.46512551 7564.72146033 -1319.84376195 7558.25440869 -1325.0234375 7551.58203125 C-1327.9181093 7547.85678601 -1330.86855108 7544.1859737 -1333.86572266 7540.54272461 C-1392.54101306 7469.15475033 -1438.21653395 7386.38058601 -1489.23046875 7257.203125 C-1489.50741577 7256.43027161 -1489.78436279 7255.65741821 -1490.06970215 7254.86114502 C-1513.42829227 7189.56579206 -1530.68262971 7122.1769791 -1544.23046875 7054.203125 C-1544.61096069 7052.30728325 -1544.99149488 7050.41144999 -1545.37207031 7048.515625 C-1563.81884013 6956.29158697 -1574.9827145 6863.05054209 -1585.93650532 6769.70800686 C-1586.23812421 6767.13789231 -1586.53984398 6764.56778961 -1586.84157562 6761.99768829 C-1598.45751685 6663.04447064 -1609.92322708 6564.07300627 -1746.18509674 4782.40731049 C-1746.22804004 4780.32111267 -1746.27146916 4778.2349257 -1746.31512451 4776.14874268 C-1746.35418915 4774.27711456 -1746.35418915 4774.27711456 -1746.39404297 4772.36767578 C-1746.41610809 4771.31339386 -1746.43817322 4770.25911194 -1746.46090698 4769.17288208 C-1746.7597235 4754.24897495 -1746.98999204 4739.3244078 -1747.19962031 4724.39902374 C-1747.22023061 4722.93191146 -1747.24092566 4721.46480037 -1747.26170439 4719.99769047 C-1748.32592905 4644.74766643 -1748.38065061 4569.50150153 -1748.36576862 4494.24588306 C-1748.3634169 4482.11305203 -1748.36318693 4469.98022232 -1748.36428452 4457.84739113 C-1748.3643609 4456.97116577 -1748.36443729 4456.09494041 -1748.36451599 4455.19216276 C-1748.36482756 4451.63114983 -1748.36514598 4448.0701369 -1748.36547575 4444.50912397 C-1748.36850504 4411.39692114 -1748.36580981 4378.28472106 -1748.36037885 4345.17251866 C-1748.35564127 4316.06740354 -1748.35605749 4286.96229281 -1748.36083984 4257.85717773 C-1748.36625327 4224.80465005 -1748.36828528 4191.75212477 -1748.36522758 4158.6995967 C-1748.36490709 4155.1433419 -1748.36459424 4151.5870871 -1748.36428452 4148.03083229 C-1748.36420544 4147.15582908 -1748.36412636 4146.28082586 -1748.36404489 4145.3793074 C-1748.36300336 4133.29115077 -1748.3638751 4121.20299575 -1748.36627077 4109.11483934 C-1748.38175955 4029.80500184 -1748.21391564 3950.50829115 -1747.23046875 3871.203125 C-1747.22031938 3870.38377555 -1747.21017001 3869.56442609 -1747.19971308 3868.72024786 C-1746.97589313 3850.71701494 -1746.72502438 3832.71447109 -1746.41480255 3814.7124939 C-1746.35245537 3811.09056907 -1746.29127894 3807.4686255 -1746.23016357 3803.84667969 C-1744.2218898 3685.59842675 -1740.66174528 3567.37432615 -1723.4215126 3247.051548 C-1723.17432562 3243.29961299 -1722.92883354 3239.54757042 -1722.6836853 3235.79550171 C-1720.92461433 3208.94323036 -1718.96769504 3182.1158071 -1716.66015625 3155.3046875 C-1716.55918577 3154.12644409 -1716.45821529 3152.94820068 -1716.3541851 3151.73425293 C-1707.12675706 3044.62399268 -1688.95409866 2938.29293553 -1471.9140625 2443.96264648 C-1468.45722004 2439.73486492 -1465.07673614 2435.45618964 -1461.73046875 2431.140625 C-1457.29302787 2425.43255127 -1452.61618688 2419.96473912 -1447.85546875 2414.52490234 C-1444.24641365 2410.39580739 -1440.75333483 2406.20265968 -1437.36328125 2401.890625 C-1435.71127011 2399.80896994 -1434.04030902 2397.75137709 -1432.34765625 2395.703125 C-1407.76897591 2367.61768824 -1407.76897591 2367.61768824 -1393.23046875 2334.203125 C-1393.80039551 2334.02885986 -1394.37032227 2333.85459473 -1394.95751953 2333.67504883 C-1431.98681351 2322.1999966 -1467.27074603 2304.86942015 -1500.42333984 2284.88671875 C-1503.27024255 2283.17927041 -1506.13203888 2281.49993057 -1509 2279.828125 C-1520.27921905 2273.24560633 -1531.3459293 2266.41868801 -1542.23046875 2259.203125 C-1542.86500977 2258.78466309 -1543.49955078 2258.36620117 -1544.15332031 2257.93505859 C-1560.11983058 2247.40439317 -1575.78240374 2236.47985896 -1591.23046875 2225.203125 C-1592.42905518 2224.32986572 -1592.42905518 2224.32986572 -1593.65185547 2223.43896484 C-1608.94451142 2212.28572025 -1623.76546653 2200.65252822 -1638.421875 2188.6796875 C-1640.02282355 2187.37264959 -1641.62644851 2186.06889144 -1643.23046875 2184.765625 C-1649.73572793 2179.4706466 -1656.15402865 2174.0788967 -1662.5390625 2168.64013672 C-1664.22339482 2167.20913498 -1665.91393155 2165.78575465 -1667.60546875 2164.36328125 C-1675.3142587 2157.85290276 -1682.73025636 2151.07997657 -1690.05078125 2144.13671875 C-1692.80583875 2141.52542123 -1695.59614517 2138.95748066 -1698.40763855 2136.40707397 C-1704.92448107 2130.48591934 -1711.21899093 2124.36958886 -1717.43237305 2118.1315918 C-1719.05599104 2116.50255928 -1720.68496478 2114.87901772 -1722.31445312 2113.25585938 C-1727.83126488 2107.74255425 -1733.16355253 2102.13623973 -1738.23046875 2096.203125 C-1739.85014692 2094.42742279 -1741.47458593 2092.65604193 -1743.10546875 2090.890625 C-1748.02624177 2085.4881498 -1752.65747365 2079.90074919 -1757.23046875 2074.203125 C-1758.15436324 2073.07113714 -1759.07887165 2071.93965013 -1760.00390625 2070.80859375 C-1780.42020366 2045.72571407 -1797.856951 2018.62663234 -1813.23046875 1990.203125 C-1813.83874512 1989.09155029 -1814.44702148 1987.97997559 -1815.07373047 1986.8347168 C-1819.7770398 1978.18638926 -1824.05215321 1969.41881933 -1827.98046875 1960.390625 C-1828.27561371 1959.71425995 -1828.57075867 1959.0378949 -1828.87484741 1958.34103394 C-1861.16002012 1883.99608085 -1872.19998488 1803.88227422 -1840.23046875 1532.203125 C-1839.83988281 1531.01074219 -1839.44929688 1529.81835938 -1839.046875 1528.58984375 C-1825.58400808 1487.84811862 -1808.26506442 1448.69757159 -1789.25445557 1410.27648926 C-1788.22381685 1408.18965627 -1787.19785011 1406.10059002 -1786.17333984 1404.01074219 C-1778.62054593 1388.60921674 -1770.87507591 1373.4120263 -1762.29296875 1358.55078125 C-1759.75128998 1354.14685863 -1757.32164818 1349.69260313 -1754.9230957 1345.20947266 C-1748.18027615 1332.61846386 -1740.79368181 1320.46008604 -1733.33049011 1308.29022217 C-1729.95798409 1302.78004306 -1726.68241316 1297.21523043 -1723.41796875 1291.640625 C-1718.06553808 1282.52898411 -1712.49951313 1273.57278499 -1706.8046875 1264.671875 C-1705.1347202 1262.05296846 -1703.47846164 1259.42573955 -1701.82421875 1256.796875 C-1680.69382296 1223.27432743 -1656.84266032 1192.54096003 -1630.23046875 1163.203125 C-1628.79272174 1161.59917971 -1627.35522798 1159.99500739 -1625.91796875 1158.390625 C-1618.49529867 1150.15042307 -1611.06799208 1141.9276579 -1603.15153599 1134.15664577 C-1601.34100569 1132.3155293 -1599.65467651 1130.42110845 -1597.97776794 1128.45851135 C-1594.34191508 1124.27777964 -1590.50866708 1120.34012946 -1586.58618164 1116.42944336 C-1585.85673843 1115.69824783 -1585.12729523 1114.96705231 -1584.37574768 1114.21369934 C-1581.98736555 1111.82095128 -1579.59538587 1109.43183839 -1577.203125 1107.04296875 C-1575.52820996 1105.36737916 -1573.85344331 1103.69164123 -1572.17881775 1102.01576233 C-1568.677882 1098.51335673 -1565.17515547 1095.0127547 -1561.67114258 1091.51342773 C-1557.19476044 1087.04274242 -1552.72288312 1082.56758228 -1548.25234318 1078.09105587 C-1544.79764456 1074.6327324 -1541.3405537 1071.17680821 -1537.88274956 1067.72159004 C-1536.23350196 1066.07300639 -1534.58498818 1064.42368825 -1532.93724251 1062.77360344 C-1530.62863251 1060.46243524 -1528.31680889 1058.15452829 -1526.00415039 1055.84741211 C-1525.33325378 1055.17449127 -1524.66235718 1054.50157043 -1523.97113037 1053.80825806 C-1520.11257473 1049.96669365 -1516.13923174 1046.32026994 -1512.01904583 1042.76110172 C-1509.84805084 1040.87001204 -1507.77229469 1038.8989817 -1505.71728516 1036.8828125 C-1504.92931549 1036.11090576 -1504.14134583 1035.33899902 -1503.32949829 1034.54370117 C-1499.76808387 1031.02776346 -1496.20943885 1027.50913913 -1492.65917969 1023.98193359 C-1490.79899863 1022.13827452 -1488.9334746 1020.29998982 -1487.0625 1018.46728516 C-1476.46628297 1008.0859068 -1466.67043696 998.09880156 -1459.23046875 985.203125 C-1458.7391748 984.38714844 -1458.24788086 983.57117188 -1457.74169922 982.73046875 C-1456.56694856 980.74249958 -1455.44978371 978.73625768 -1454.35546875 976.703125 C-1453.74324463 975.58079468 -1453.74324463 975.58079468 -1453.11865234 974.43579102 C-1451.81292574 972.02997374 -1450.52062401 969.61732319 -1449.23046875 967.203125 C-1448.80636719 966.41663574 -1448.38226562 965.63014648 -1447.9453125 964.81982422 C-1441.09870101 952.08972532 -1434.72746941 939.14197239 -1428.41796875 926.140625 C-1420.13945696 909.08303259 -1411.74487673 892.08522281 -1403.27822876 875.12039185 C-1401.93124545 872.42136719 -1400.58619394 869.7213954 -1399.24301147 867.02047729 C-1391.60630944 851.6685592 -1383.80780256 836.43596268 -1375.47583008 821.4458313 C-1374.3603136 819.43695582 -1373.25271247 817.42409586 -1372.15039062 815.40795898 C-1362.8766115 798.45229945 -1353.20673162 781.7551528 -1343.23046875 765.203125 C-1342.2861499 763.62893799 -1342.2861499 763.62893799 -1341.32275391 762.02294922 C-1324.70043622 734.37074863 -1306.7634749 707.30702422 -1287.79296875 681.203125 C-1287.25567139 680.46167236 -1286.71837402 679.72021973 -1286.16479492 678.95629883 C-1277.39183072 666.88464874 -1268.383232 654.98887493 -1259.23046875 643.203125 C-1258.80975098 642.66010742 -1258.3890332 642.11708984 -1257.95556641 641.55761719 C-1246.92868701 627.34408981 -1235.44874295 613.51227885 -1223.68945312 599.90039062 C-1222.22011327 598.19107826 -1220.76283003 596.47217301 -1219.30859375 594.75 C-1212.91054295 587.18963133 -1206.28396035 579.89180752 -1199.4921875 572.68359375 C-1196.732685 569.7518715 -1194.03185539 566.7736809 -1191.35546875 563.765625 C-1188.14305021 560.16652645 -1184.81989723 556.73159602 -1181.34765625 553.3828125 C-1179.56866027 551.55130003 -1177.92223834 549.68591906 -1176.265625 547.74609375 C-1171.58034724 542.35553216 -1166.51765136 537.34058116 -1161.46069336 532.30297852 C-1159.79620598 530.6438518 -1158.13713428 528.97944449 -1156.47851562 527.31445312 C-1151.41991959 522.25302182 -1146.32781891 517.28679994 -1140.88256836 512.63696289 C-1138.54449441 510.60777591 -1136.38930295 508.42030607 -1134.23046875 506.203125 C-1130.76138744 502.69719458 -1127.22767548 499.37513237 -1123.48046875 496.171875 C-1121.1413339 494.125132 -1118.86933271 492.01860031 -1116.59814453 489.8972168 C-1111.17068031 484.82858666 -1105.63694922 480.00065996 -1099.84375 475.34765625 C-1097.23199252 473.20437544 -1094.72681573 470.9793217 -1092.23046875 468.703125 C-1087.58609552 464.48030677 -1082.77655083 460.50714844 -1077.89697266 456.56054688 C-1075.99262763 455.00939564 -1074.10123744 453.44323571 -1072.2109375 451.875 C-1064.30708944 445.32030499 -1056.35716131 438.87202999 -1048.16992188 432.67285156 C-1044.94233047 430.22696785 -1041.72307208 427.77014735 -1038.50219727 425.31542969 C-1036.65396638 423.90691268 -1034.80549617 422.49870965 -1032.95678711 421.09082031 C-1026.60775115 416.25552609 -1020.26379406 411.4142621 -1013.95019531 406.53271484 C-1012.70008041 405.56620068 -1011.44934698 404.60048636 -1010.19824219 403.63525391 C-1001.3477766 396.80341921 -992.57160977 389.89775175 -983.91870117 382.81713867 C-978.88054741 378.70380874 -973.7467476 374.74028809 -968.57421875 370.796875 C-964.73159368 367.84100956 -960.98309847 364.77188089 -957.23046875 361.703125 C-951.45094495 356.9803307 -945.61021124 352.36721602 -939.67578125 347.83984375 C-936.4260521 345.36018809 -933.202045 342.84839177 -929.97973633 340.33325195 C-914.36334786 328.14762114 -898.71812785 316.03852016 -882.44189453 304.7421875 C-880.04096997 303.07124155 -877.64883829 301.38820261 -875.2578125 299.703125 C-865.34304181 292.72148969 -855.36822383 285.85646175 -845.23046875 279.203125 C-844.40772461 278.66107422 -843.58498047 278.11902344 -842.73730469 277.56054688 C-819.28724141 262.11926922 -795.46757953 247.37664937 -771.23046875 233.203125 C-770.12880371 232.55811035 -769.02713867 231.9130957 -767.89208984 231.24853516 C-753.65811597 222.9301428 -739.30027854 214.8869745 -724.76245117 207.11254883 C-722.04016366 205.6484694 -719.33395654 204.15681134 -716.63012695 202.65893555 C-701.89853169 194.51839912 -686.93657092 186.8762068 -671.87675858 179.36744308 C-669.88789972 178.37563004 -667.89970612 177.38249275 -665.91159058 176.38919067 C-647.3495856 167.12045805 -628.72040009 158.07797992 -609.71777344 149.74169922 C-606.16050151 148.17225595 -602.61987847 146.56974574 -599.08203125 144.95703125 C-556.95745873 125.78574172 -513.82295816 108.73186568 -470.23046875 93.203125 C-469.07408905 92.79027252 -469.07408905 92.79027252 -467.89434814 92.36907959 C-424.79860067 76.99047424 -381.31303763 63.46289312 -337.23046875 51.203125 C-336.43741333 50.98160767 -335.64435791 50.76009033 -334.82727051 50.53186035 C-242.71732193 24.80582974 -147.87198141 8.95982965 -52.546875 1.96484375 C-51.27148109 1.86997681 -51.27148109 1.86997681 -49.97032166 1.77319336 C-33.31332105 0.58938453 -16.69686025 0.03657691 0 0 Z " fill="#000000" transform="translate(1871.23046875,-0.203125)"/>
<path d="M0 0 C0.86866699 0.13921875 1.73733398 0.2784375 2.63232422 0.421875 C36.44262563 6.01270762 70.05544492 17.8530049 98 38 C98.99257812 38.70769531 99.98515625 39.41539063 101.0078125 40.14453125 C107.17468178 44.64744987 112.89394505 49.465069 118.48046875 54.66796875 C120.62969108 56.65724896 122.82061528 58.55503568 125.0625 60.4375 C140.06741289 73.58957952 151.25198905 90.65455993 162.25 107.125 C162.66779724 107.74935944 163.08559448 108.37371887 163.51605225 109.01699829 C172.07070518 121.83046933 180.05456515 134.93971548 187.375 148.5 C188.18747192 150.00046875 188.18747192 150.00046875 189.01635742 151.53125 C194.72057387 162.17313464 199.91620197 173.05075648 205 184 C206.08192627 184.07516846 207.16385254 184.15033691 208.27856445 184.2277832 C212.39262726 184.51585542 216.50583437 184.81494708 220.61889648 185.11694336 C222.38040806 185.24482977 224.14212361 185.3699445 225.90405273 185.49194336 C241.61919708 186.58333521 257.45804608 188.07791648 272.6875 192.3125 C273.46528809 192.52487305 274.24307617 192.73724609 275.04443359 192.95605469 C305.50688948 201.50713723 333.56123612 218.16455951 350 246 C369.58113591 281.47158651 373.25691229 321.35101614 373.125 361.1875 C373.12378143 362.00891479 373.12256287 362.83032959 373.12130737 363.67663574 C373.10094413 375.53402281 372.8745465 387.3703227 372.43327332 399.22024536 C372.00612529 410.90106956 371.72867171 422.58341128 371.4921875 434.26953125 C371.47043394 435.34246492 371.44868038 436.4153986 371.42626762 437.52084541 C370.92247186 462.87411757 370.75757773 488.22796666 370.61157227 513.58535767 C370.52510977 528.57000268 370.42117181 543.55453605 370.31640625 558.5390625 C370.31077935 559.34759462 370.30515244 560.15612673 370.29935503 560.98915982 C369.98175671 606.55457032 369.54496884 652.11888994 369.09877151 697.68319505 C369.02243753 705.48685561 368.94745478 713.29052834 368.87307739 721.09420776 C368.63307721 746.21810722 368.3766449 771.34173651 368.08573383 796.46510166 C368.0222544 801.97114351 367.96336018 807.47721626 367.90722656 812.9833374 C367.84182957 819.36449705 367.76218309 825.74536257 367.67016602 832.12619591 C367.64105251 834.2681793 367.61615379 836.41022618 367.59643555 838.55231667 C367.462628 852.62366221 366.18420315 866.33013321 364.33949947 880.27788258 C363.47578597 887.20316454 362.98659717 894.16482999 362.5 901.125 C362.41094894 902.37605026 362.41094894 902.37605026 362.32009888 903.65237427 C359.41606346 944.86655482 357.88689952 986.13957526 356.875 1027.4375 C356.85548656 1028.22037762 356.83597313 1029.00325523 356.81586838 1029.80985641 C355.1416264 1097.01959985 354.83668521 1164.22938072 354.83274293 1231.45634294 C354.83223687 1238.32870624 354.82991647 1245.20106826 354.82724571 1252.07343102 C354.81847436 1275.14514173 354.81381809 1298.21684791 354.81457619 1321.28856031 C354.81461614 1322.51808882 354.8146561 1323.74761734 354.81469727 1325.0144043 C354.81473815 1326.24559573 354.81477903 1327.47678717 354.81482115 1328.74528744 C354.81519684 1347.17549542 354.80745108 1365.60568574 354.79418945 1384.03588867 C354.71719574 1493.03038329 354.92969924 1602.00547145 356.61208553 1730.81600942 C357.00556897 1760.08025171 357.27903749 1789.34466078 357.50733566 1818.61063766 C357.59603075 1829.91627225 357.69696236 1841.22180379 357.796875 1852.52734375 C357.8160225 1854.69875615 357.83516285 1856.87016862 357.85429573 1859.04158115 C357.86269796 1859.99438483 357.8711002 1860.9471885 357.87975705 1861.92886502 C357.95088894 1870.02561804 358.01666612 1878.12236333 358.07226562 1886.21923828 C358.36525437 1928.25920702 359.89012567 1970.06942168 364.33984375 2011.90234375 C367.51367141 2042.12679939 368.50979692 2071.99408068 368.69042969 2102.34912109 C368.71385047 2106.26530164 368.73765401 2110.18147961 368.76171875 2114.09765625 C368.76786823 2115.12781609 368.77401772 2116.15797592 368.78035355 2117.21935272 C368.988945 2150.67200423 369.60804699 2184.12022939 370.18653202 2217.56810248 C370.20326686 2218.53574951 370.2200017 2219.50339654 370.23724365 2220.50036621 C370.2539659 2221.46724188 370.27068815 2222.43411755 370.28791714 2223.43029249 C370.42076896 2231.14345112 370.54670667 2238.85671096 370.67103249 2246.57001108 C370.79126651 2254.0077708 370.91686601 2261.44542835 371.04639763 2268.8830319 C371.1219442 2273.2266226 371.19556628 2277.57021909 371.26334572 2281.91393852 C371.7980797 2315.9405918 373.68922736 2349.81264165 376.33856201 2383.73675537 C376.55621731 2386.53533348 376.77010013 2389.3341944 376.98384094 2392.13307381 C377.24835971 2395.59532514 377.51482016 2399.05742655 377.78125 2402.51953125 C377.83340668 2403.1994022 377.88556335 2403.87927315 377.93930054 2404.57974625 C378.42856788 2410.94429574 378.92073667 2417.30731918 379.53125 2423.66162109 C384.00818237 2470.72040781 383.35217215 2518.15590107 383.5 2565.375 C383.13905881 2643.85769579 383.13905881 2643.85769579 389.375 2722 C389.72084511 2724.76312613 390.05996458 2727.52706754 390.39916992 2730.29101562 C391.15173383 2736.39994208 391.9180859 2742.50701218 392.69189453 2748.61328125 C394.4688011 2762.65231794 396.17827002 2776.69966747 397.89556885 2790.74609375 C398.0288559 2791.83628815 398.16214294 2792.92648254 398.29946899 2794.04971313 C398.56898734 2796.25427675 398.83845752 2798.45884625 399.10787964 2800.66342163 C399.89751813 2807.12084735 400.69152207 2813.57771555 401.48991013 2820.03406525 C401.99367366 2824.10825368 402.49613258 2828.18260219 402.99816895 2832.25700378 C403.24031398 2834.22125458 403.48284328 2836.18545804 403.72576904 2838.14961243 C404.86137169 2847.3430653 405.98457752 2856.53430092 406.90673828 2865.75195312 C407.03662643 2867.04105591 407.16651459 2868.33015869 407.30033875 2869.6583252 C407.52345527 2871.93488943 407.73704206 2874.21242441 407.93757629 2876.49108887 C408.76259903 2885.04380571 411.18021596 2892.61213545 414.12109375 2900.64453125 C436.00641544 2961.27506109 440.79158388 3030.23618246 449.58001709 3093.75024986 C456.65398831 3147.56246177 456.65398831 3147.56246177 466 3201 C466.27626221 3202.39895508 466.27626221 3202.39895508 466.55810547 3203.82617188 C469.12026825 3216.33347891 474.55017627 3225.69288836 482 3236 C482.33291638 3217.80057107 480.72919817 3199.66714433 479.0625 3181.5625 C478.89092299 3179.66344332 478.71969846 3177.76435477 478.54882812 3175.86523438 C477.57212547 3164.98226874 477.57212547 3164.98226874 476.49560547 3154.10888672 C473.40823394 3124.24206115 472.65867869 3094.37678142 472.42619705 3064.37611985 C472.38509782 3059.3128782 472.33417746 3054.24973311 472.2845459 3049.18656921 C472.19071064 3039.46493119 472.10555515 3029.74323722 472.02349222 3020.02149349 C471.92843884 3008.8144287 471.82320623 2997.60746579 471.71759522 2986.40049636 C471.34687911 2946.98275876 471.01350306 2907.56470164 470.70474124 2868.1464324 C470.68762809 2865.96554218 470.67041636 2863.78465275 470.65316963 2861.60376358 C470.55083243 2848.66012244 470.44969863 2835.71648742 470.36469746 2822.77271843 C470.18984747 2794.3436713 470.18984747 2794.3436713 469.65269661 2765.91971779 C469.60066284 2763.88698552 469.55471474 2761.85410011 469.50914001 2759.82121277 C469.13987702 2747.44924464 467.63737207 2735.42606418 464.5 2723.4375 C461.24301744 2710.9326609 459.72613716 2698.50943464 459.44042969 2685.59863281 C459.40441075 2684.20048935 459.36809283 2682.80235358 459.3315239 2681.4042244 C459.203116 2676.26982734 459.10042039 2671.13501039 459 2666 C458.97964754 2664.97374952 458.95929508 2663.94749905 458.93832588 2662.89015007 C458.54222195 2642.73505883 458.23516491 2622.57882373 457.953125 2602.421875 C457.94210585 2601.63842834 457.9310867 2600.85498169 457.91973364 2600.04779422 C456.69581395 2512.88545169 456.68567725 2425.72294354 456.73860341 2338.55357987 C456.74762145 2323.66328969 456.75294517 2308.77300282 456.75570727 2293.8827102 C456.77526942 2191.30337546 456.91459855 2088.72590953 458.16674391 1902.44629844 C458.27400317 1888.16608773 458.37916443 1873.88586181 458.48265579 1859.6056233 C458.49996994 1857.21898727 458.51736326 1854.83235181 458.53476119 1852.44571638 C458.94101202 1796.57593447 459.12866353 1740.70674521 459.23753238 1684.83564401 C459.24986138 1678.53048547 459.26290454 1672.22532853 459.27609444 1665.92017174 C459.35517076 1628.03518724 459.43177392 1590.15021338 459.46284755 1552.26515486 C459.47612381 1536.16395413 459.49916394 1520.06279157 459.53154695 1503.96161777 C459.54872724 1495.22137156 459.56070303 1486.48118755 459.55848694 1477.74092293 C459.54533262 1410.17696644 459.54533262 1410.17696644 463 1381 C463.20744722 1379.07409662 463.41250271 1377.14793321 463.61450195 1375.22145081 C464.05171743 1371.07866128 464.54657685 1366.9462546 465.0625 1362.8125 C467.9274908 1339.65094789 469.30406221 1316.74315485 469.2174722 1293.39954484 C469.2065548 1289.82954997 469.20766794 1286.25955344 469.2071991 1282.68954468 C469.20486057 1276.52947095 469.19538608 1270.36944347 469.18089485 1264.20938683 C469.15997727 1255.27302457 469.15149033 1246.33668148 469.1459735 1237.40029798 C469.13676064 1222.85352221 469.11936485 1208.30676922 469.09594727 1193.76000977 C469.0938573 1192.45991423 469.0938573 1192.45991423 469.0917251 1191.13355414 C469.08963181 1189.83195718 469.08963181 1189.83195718 469.08749622 1188.50406533 C469.06774358 1176.21308036 469.04989895 1163.92209466 469.03442383 1151.63110352 C469.03278755 1150.33399605 469.03278755 1150.33399605 469.03111822 1149.01068439 C469.01300021 1134.51396156 468.99907746 1120.0172364 468.98725218 1105.52050716 C468.97973148 1096.62315175 468.96808952 1087.72581973 468.95079052 1078.82847784 C468.93908619 1072.71824773 468.9309839 1066.60801949 468.92552502 1060.49778064 C468.92224558 1056.99244016 468.91737099 1053.48712354 468.90771103 1049.98179436 C468.84705307 1025.95126653 469.23133093 1001.97850224 471.45996094 978.03881836 C474.94721483 939.96219404 477.44371765 901.81002264 480.05706501 863.66581535 C480.231264 861.12332376 480.4055678 858.58083935 480.5799818 856.0383625 C480.98678635 850.10797686 481.39235675 844.17751465 481.79472351 838.24682617 C481.94026358 836.11563896 482.08583574 833.98445395 482.23144531 831.85327148 C482.29481111 830.9116236 482.3581769 829.96997572 482.42346287 828.99979305 C482.80327489 823.46244405 483.26346317 817.93820356 483.79358292 812.41314507 C484.91528506 799.2997441 483.63681545 786.03353949 482.71661377 772.947052 C480.57495775 741.9557989 478.87367236 710.7911102 484 680 C484.20882812 678.72624512 484.20882812 678.72624512 484.421875 677.42675781 C487.70133801 658.38006177 494.90325386 640.7206832 511 629 C526.9225181 620.0506817 542.79090753 620.74185276 560 625 C560.99 625.33 561.98 625.66 563 626 C563.07069678 642.69417214 562.87445874 659.38146667 562.62632942 676.07328796 C562.50630083 684.15946647 562.3934698 692.24574793 562.28076172 700.33203125 C562.26896114 701.17653304 562.25716056 702.02103483 562.24500239 702.89112759 C561.98442701 721.59651103 561.76899185 740.30232414 561.56356096 759.00838399 C561.53503432 761.60484814 561.50638745 764.20131094 561.47770309 766.79777336 C561.39952949 773.87522492 561.32152073 780.95267828 561.24382973 788.03013515 C560.66151326 841.06667933 560.06601448 894.10260382 559.26153564 947.13630676 C558.8983685 971.07823639 558.54857822 995.02035714 558.20362908 1018.96255529 C558.09338299 1026.60573765 557.98188517 1034.24889775 557.86698341 1041.89201164 C556.51240332 1132.05748695 555.83279678 1222.21793521 555.79680382 1446.78351628 C555.80992615 1469.00891845 555.81526635 1491.23431088 555.81469727 1513.4597168 C555.81463926 1516.42492108 555.81458871 1519.39012535 555.81453812 1522.35532963 C555.8145191 1523.45484905 555.8145191 1523.45484905 555.81449969 1524.57658098 C555.81446232 1526.79534275 555.8144277 1529.01410452 555.814394 1531.23286629 C555.81438194 1531.96421039 555.81436988 1532.69555449 555.81435746 1533.44906054 C555.78987193 1659.06720497 555.78987193 1659.06720497 556.34557937 1817.7655565 C556.37695844 1822.50652753 556.40530079 1827.24750611 556.43226051 1831.98850441 C556.63210024 1865.91405085 557.48120456 1899.78930607 558.65854013 1933.69246668 C559.02818287 1944.48343231 559.30209995 1955.2754554 559.52734375 1966.0703125 C559.54564232 1966.94353098 559.56394088 1967.81674947 559.58279395 1968.71642911 C559.66797967 1972.80501886 559.75134602 1976.89364122 559.8331604 1980.9822998 C560.46278368 2012.25432771 561.26806579 2043.51917215 562.22219467 2074.78285599 C562.37583623 2079.83102566 562.52739955 2084.87925757 562.67895508 2089.92749023 C562.71056638 2090.98004722 562.74217768 2092.0326042 562.77474689 2093.11705685 C563.05735204 2102.5300842 563.33953676 2111.94312421 563.62121868 2121.35617924 C563.81941246 2127.97885883 564.01801441 2134.60152567 564.2176457 2141.2241621 C565.01126857 2167.55434063 565.78684194 2193.88500468 566.5399518 2220.2163744 C566.6248613 2223.18265445 566.7100699 2226.1489258 566.79531479 2229.11519623 C567.97990574 2270.39956531 569.1195885 2311.6789228 569.4375 2352.98046875 C569.44314453 2353.70452117 569.44878905 2354.42857358 569.45460463 2355.17456698 C569.56215549 2369.17383559 569.6304503 2383.17296927 569.63341141 2397.1726923 C569.63578624 2401.84491962 569.64782955 2406.51710086 569.66052246 2411.18931007 C569.66388198 2414.2644469 569.65042463 2417.33913961 569.63525391 2420.41423035 C569.62704016 2438.05574916 571.41847189 2455.43080629 576 2472.5 C578.352579 2482.0379922 579.86502627 2491.47266643 580.8125 2501.25 C580.92400391 2502.37599609 581.03550781 2503.50199219 581.15039062 2504.66210938 C583.47487932 2531.50477181 583.14513797 2558.57082128 583.16866493 2585.4886055 C583.17470018 2591.80585566 583.19134627 2598.12305315 583.21000671 2604.4402771 C583.21633935 2606.62347601 583.22266502 2608.80667494 583.22898388 2610.98987389 C583.23214969 2612.08112973 583.2353155 2613.17238557 583.23857725 2614.29670978 C583.28031465 2628.94893747 583.31367517 2643.60113449 583.32592773 2658.25341797 C583.33434415 2668.21766314 583.35694273 2678.18177062 583.3952834 2688.14594686 C583.41487707 2693.38880247 583.42750373 2698.63145316 583.42244911 2703.87434769 C583.41775666 2708.79797728 583.43185497 2713.72121671 583.45946121 2718.64476776 C583.46628882 2720.43276818 583.46659258 2722.22080971 583.45926094 2724.00880814 C583.4002187 2740.0456888 586.13383934 2754.88330334 590.625 2770.25 C592.49367655 2777.00069305 593.55031929 2783.56056436 594.08203125 2790.54296875 C594.16319687 2791.56853378 594.24436249 2792.59409882 594.32798767 2793.65074158 C595.33719946 2807.34291956 595.65908721 2821.06613987 596.00434494 2834.7875824 C596.06354481 2837.10337088 596.12578117 2839.41905901 596.18899536 2841.73474121 C596.74561789 2862.12931246 597.13436527 2882.5203299 597.38934326 2902.9208374 C597.6852716 2926.45145335 598.36516735 2949.93137981 599.4375 2973.4375 C599.46858227 2974.124384 599.49966454 2974.81126801 599.53168869 2975.51896667 C600.25979928 2991.58175669 601.13746312 3007.63120854 602.16622734 3023.6771698 C602.85438017 3034.41483856 603.43156841 3045.15099482 603.89111328 3055.90066528 C604.52968693 3070.77810698 605.30638768 3085.63878338 606.25 3100.49975586 C606.95056913 3111.66139899 607.48492501 3122.82843094 608 3134 C608.57373172 3146.35302095 609.15814511 3158.70486029 609.87939453 3171.05029297 C609.99459569 3173.0320327 610.1048418 3175.01405862 610.21484375 3176.99609375 C611.06077866 3191.05048608 612.68597307 3204.33996086 616.7890625 3217.84765625 C621.20330113 3233.43125627 621.29174079 3249.95310603 621.33552551 3266.0375824 C621.34403812 3269.0714363 621.36473814 3272.10501954 621.38806152 3275.13879395 C621.43564297 3281.59248728 621.46891634 3288.04620891 621.5 3294.5 C621.64027582 3345.05952573 621.64027582 3345.05952573 627.9765625 3395.13671875 C629.85374772 3405.04123413 631.49234297 3414.92505693 632.6875 3424.9375 C632.80673828 3425.89922119 632.92597656 3426.86094238 633.04882812 3427.85180664 C635.1708211 3446.61703209 635.13433231 3465.61154032 635.38760376 3484.47171021 C636.02743645 3531.84076402 636.02743645 3531.84076402 644.34375 3578.359375 C647.83348738 3592.40141352 648.0967147 3606.90496808 648.41499138 3621.29832649 C648.46659321 3623.61365293 648.5230643 3625.92881966 648.58070374 3628.2440033 C648.7436792 3634.8175439 648.89966602 3641.39123621 649.04956055 3647.96508789 C649.66977306 3674.97079975 650.50567349 3701.850636 654.48666382 3728.61175537 C659.93019542 3765.59354764 662.14518982 3802.86698008 663.96166992 3840.17724609 C664.60281538 3853.17271139 665.53136518 3866.0718576 667 3879 C667.10812012 3879.95736053 667.21624023 3880.91472107 667.32763672 3881.90109253 C667.92947575 3887.20989217 668.54076956 3892.51755801 669.15698242 3897.82470703 C671.19714226 3915.40694137 673.22601223 3932.98382496 674.6875 3950.625 C674.74496399 3951.31327881 674.80242798 3952.00155762 674.8616333 3952.71069336 C675.43688666 3959.63985368 675.97123655 3966.57141727 676.47189331 3973.50634766 C677.71385404 3990.5513342 679.56648547 4007.23580248 682.84301758 4024.02172852 C686.79441219 4044.52526074 687.47006557 4064.97689288 688 4085.8125 C688.51000617 4107.62674733 688.51000617 4107.62674733 689.9453125 4129.39453125 C690.02104492 4130.24956741 690.09677734 4131.10460358 690.17480469 4131.98554993 C691.10659888 4141.4365121 693.42006049 4150.51459204 696.04296875 4159.62109375 C698.35761121 4168.00169574 699.58224827 4176.162187 700.453125 4184.80078125 C700.58076736 4186.03035553 700.70840973 4187.25992981 700.83992004 4188.52676392 C702.19076317 4201.63621421 703.44914267 4214.75452744 704.6875 4227.875 C704.87666115 4229.86810846 705.06582492 4231.86121668 705.25512505 4233.85431194 C706.84551057 4250.60516337 708.40713934 4267.35863897 709.95703125 4284.11328125 C710.12562996 4285.93537957 710.29423451 4287.75747734 710.46284485 4289.57957458 C710.54678214 4290.48666326 710.63071943 4291.39375193 710.71720028 4292.32832813 C711.14471041 4296.9480604 711.57232172 4301.5677833 712 4306.1875 C712.08529591 4307.10906261 712.17059181 4308.03062523 712.25847244 4308.98011398 C714.68398504 4335.17924879 717.19252097 4361.36695885 719.8449707 4387.54418945 C722.07766138 4409.59857507 724.17860359 4431.66454907 726.2585907 4453.73376465 C726.60341799 4457.37677173 726.95266048 4461.01933549 727.30249023 4464.66186523 C727.78717875 4469.71449794 728.24879485 4474.76868864 728.69946289 4479.82446289 C729.99700257 4494.03558279 731.7781037 4507.80132146 735.0625 4521.6875 C739.22328034 4539.56266936 741.21012776 4557.0327764 741.5 4575.375 C741.92911395 4600.69272286 744.22080745 4625.71740887 747.5899086 4650.80459595 C748.08754393 4654.52764198 748.57406101 4658.25214135 749.0612793 4661.9765625 C749.69523578 4666.81945332 750.32969396 4671.66227264 750.96788025 4676.50460815 C753.3850543 4694.85395139 755.72119168 4713.21354267 758.05792236 4731.57327271 C758.81920818 4737.55412163 759.58201844 4743.53477547 760.34521484 4749.51538086 C760.47264069 4750.51393128 760.60006653 4751.51248171 760.73135376 4752.54129124 C760.98959733 4754.56493172 761.24784472 4756.58857171 761.50609589 4758.61221123 C762.02503381 4762.67895516 762.54377725 4766.74572389 763.06251526 4770.81249332 C764.71144965 4783.73968105 766.36135897 4796.66674418 768.01171875 4809.59375 C768.13511942 4810.56033035 768.25852009 4811.52691071 768.38566017 4812.52278137 C769.00810184 4817.39824576 769.63055822 4822.27370826 770.25302124 4827.14916992 C771.37703486 4835.95309906 772.50091759 4844.75704491 773.62481117 4853.56098938 C774.24986885 4858.45732693 774.87493484 4863.35366341 775.5 4868.25 C775.75000004 4870.20833333 776.00000004 4872.16666666 776.25 4874.125 C776.37375 4875.094375 776.4975 4876.06375 776.625 4877.0625 C796.10595704 5029.66333012 796.10595704 5029.66333012 796.46297836 5032.46024132 C796.69811841 5034.30200922 796.93333994 5036.14376672 797.16864395 5037.98551369 C797.74437215 5042.4925732 798.31873236 5046.99979816 798.89007568 5051.50741577 C799.98676438 5060.14765347 801.09952296 5068.78517436 802.25494194 5077.41778088 C802.82269311 5081.66707003 803.38270368 5085.91736453 803.94212723 5090.16775703 C804.21030396 5092.18915937 804.4821178 5094.21008328 804.75797653 5096.23045158 C808.03090989 5120.21750019 808.44528002 5141.12360952 794.00390625 5161.8671875 C780.53730897 5179.19853017 762.01359728 5188.57195785 740.77734375 5192.61328125 C713.97083733 5195.3576909 686.52369964 5191.57580746 664 5176 C660.72448282 5173.21263739 657.83432965 5170.2302178 655 5167 C654.44570312 5166.38769531 653.89140625 5165.77539062 653.3203125 5165.14453125 C651.51662258 5163.1207739 649.75602642 5161.06530701 648 5159 C638.96942299 5148.37960474 629.91876066 5137.81229811 620 5128 C619.23429687 5129.43666016 619.23429687 5129.43666016 618.453125 5130.90234375 C608.7568516 5148.78098269 596.79239328 5164.67341028 583.09765625 5179.68359375 C581.29408387 5181.67524817 579.54893904 5183.70021857 577.8125 5185.75 C569.92195197 5194.8020072 561.1802042 5203.26930173 552 5211 C551.01128906 5211.86625 550.02257813 5212.7325 549.00390625 5213.625 C522.74113901 5236.59203246 493.54521139 5256.21697751 463 5273 C462.11006348 5273.4935498 461.22012695 5273.98709961 460.30322266 5274.49560547 C448.55134124 5280.97569368 436.58411425 5286.63622417 424.1875 5291.75 C423.54127686 5292.01683594 422.89505371 5292.28367188 422.22924805 5292.55859375 C411.41989272 5297 411.41989272 5297 409 5297 C409.01047363 5297.55010742 409.02094727 5298.10021484 409.03173828 5298.66699219 C409.94580133 5355.06121128 403.33242233 5414.4078664 363 5457 C362.23042969 5457.82242188 361.46085937 5458.64484375 360.66796875 5459.4921875 C343.78391777 5477.00359418 322.51681528 5488.19372812 301 5499 C299.7305957 5499.64171143 299.7305957 5499.64171143 298.43554688 5500.29638672 C240.56577586 5529.3580785 176.78081971 5546.36815887 112.93200684 5555.7154541 C111.20546439 5555.96973921 109.48008579 5556.23189783 107.75488281 5556.49511719 C22.31720127 5569.42261405 -67.41534395 5562.43393371 -366 5449 C-366.98395752 5448.32469238 -366.98395752 5448.32469238 -367.98779297 5447.63574219 C-383.43889882 5437.00468185 -398.23752018 5425.57510638 -412.44677734 5413.33544922 C-415.16121592 5411.00159524 -417.89299502 5408.68824223 -420.625 5406.375 C-421.43880127 5405.68519043 -421.43880127 5405.68519043 -422.26904297 5404.98144531 C-425.62988285 5402.1389843 -429.02130676 5399.33846962 -432.4375 5396.5625 C-448.43105402 5383.51082599 -462.19898332 5370.18568714 -474.53515625 5353.59765625 C-485.65967389 5338.70341963 -497.73880779 5328.4609352 -514.328125 5320.26953125 C-515.01382065 5319.92866486 -515.6995163 5319.58779846 -516.4059906 5319.23660278 C-521.53006328 5316.69995891 -526.68409712 5314.22848085 -531.84765625 5311.7734375 C-549.50188613 5303.37360827 -566.66360684 5294.80668394 -583 5284 C-584.37599365 5283.09386963 -584.37599365 5283.09386963 -585.77978516 5282.16943359 C-604.5697779 5269.7258799 -622.713374 5256.46145077 -640 5242 C-640.59619141 5241.50290527 -641.19238281 5241.00581055 -641.80664062 5240.49365234 C-655.14770901 5229.33319409 -667.6813244 5217.39867392 -680 5205.125 C-681.32656616 5203.80544312 -681.32656616 5203.80544312 -682.67993164 5202.45922852 C-687.66124309 5197.46561403 -692.41527877 5192.35777576 -697 5187 C-698.02141129 5185.84325976 -699.04481 5184.688271 -700.0703125 5183.53515625 C-707.55752991 5175.05118102 -714.56926416 5166.29265853 -721.33642578 5157.22558594 C-723.01564208 5154.97907349 -724.70854204 5152.74334081 -726.40234375 5150.5078125 C-758.83145546 5107.42315957 -784.54320315 5058.8173244 -805 5009 C-805.27116638 5008.34076538 -805.54233276 5007.68153076 -805.82171631 5007.00231934 C-817.12508142 4979.44739921 -826.75640881 4951.30334815 -836 4923 C-836.28506409 4922.12950012 -836.57012817 4921.25900024 -836.86383057 4920.36212158 C-844.42196226 4897.21190917 -849.7898676 4873.91849719 -854.42330933 4850.02160645 C-856.15631787 4841.11138022 -858.05933539 4832.24193949 -860 4823.375 C-860.32725086 4821.87373797 -860.65431769 4820.37243581 -860.98120117 4818.87109375 C-861.47585211 4816.59928179 -861.97059229 4814.32749016 -862.46601868 4812.05584717 C-863.72887448 4806.26113021 -864.97699898 4800.46333643 -866.21875 4794.6640625 C-866.40613235 4793.78898544 -866.59351471 4792.91390839 -866.78657532 4792.01231384 C-867.7372505 4787.57017253 -868.68615338 4783.12765718 -869.63354492 4778.68481445 C-871.45804423 4770.13767132 -873.30364934 4761.5963573 -875.20703125 4753.06640625 C-878.397101 4738.72574321 -881.40773669 4724.49790347 -883.35717773 4709.92529297 C-884.76777506 4699.76389278 -886.75991244 4689.74245287 -888.77435303 4679.68615723 C-893.07820608 4658.19969241 -896.97566886 4636.70593945 -900 4615 C-900.09841187 4614.29452026 -900.19682373 4613.58904053 -900.29821777 4612.86218262 C-903.27524111 4591.29783086 -904.80842346 4569.69497817 -905.96166992 4547.96166992 C-906.80324616 4532.30346119 -908.28014363 4517.48809225 -912.5 4502.3125 C-917.04036422 4485.81331035 -919.02395438 4469.97285356 -919.38760376 4452.91400146 C-919.84696194 4432.41623149 -920.54312438 4412.47281554 -927.04296875 4392.8515625 C-929.36554912 4385.64355445 -930.56423859 4378.65198983 -931.37890625 4371.140625 C-931.50407623 4369.99810776 -931.62924622 4368.85559052 -931.75820923 4367.67845154 C-934.17180426 4344.6450791 -935.65213514 4321.50834734 -937.36962891 4298.4152832 C-939.10016693 4275.19551087 -940.94321272 4252.01132261 -943.5859375 4228.875 C-943.68682552 4227.9874811 -943.78771355 4227.0999622 -943.89165878 4226.18554878 C-946.24586036 4200.24456592 -946.24586036 4200.24456592 -952 4175 C-952.24100011 4173.0877509 -952.43883987 4171.1699538 -952.61328125 4169.25048828 C-952.7246492 4168.04577377 -952.83601715 4166.84105927 -952.95075989 4165.59983826 C-953.0713551 4164.25666437 -953.19193457 4162.91348906 -953.3125 4161.5703125 C-953.44292999 4160.14820577 -953.57373344 4158.72613325 -953.70487976 4157.30409241 C-953.98934829 4154.2139086 -954.27182645 4151.12355171 -954.55282593 4148.03305054 C-955.32361656 4139.56149853 -956.10978678 4131.09136232 -956.89453125 4122.62109375 C-956.97752787 4121.72414858 -957.06052448 4120.82720341 -957.14603615 4119.90307808 C-959.17442872 4097.99052561 -961.27907748 4076.085427 -963.39813232 4054.18148041 C-963.68294859 4051.23459172 -963.96697751 4048.28762826 -964.25073242 4045.34063721 C-966.21229873 4024.97391854 -968.22920535 4004.61555813 -970.39651871 3984.26964188 C-971.65826586 3972.41366365 -972.82679049 3960.5546055 -973.83963013 3948.67437744 C-974.23940767 3943.98926706 -974.65170379 3939.30524866 -975.0625 3934.62109375 C-975.14270889 3933.70384521 -975.22291779 3932.78659668 -975.30555725 3931.84155273 C-976.33571068 3920.10287524 -977.48430014 3908.37623038 -978.64111328 3896.64941406 C-979.26876046 3890.2670535 -979.88352132 3883.88344724 -980.5 3877.5 C-980.74994283 3874.91666113 -980.99994273 3872.33332779 -981.25 3869.75 C-985.74999999 3823.25000015 -985.74999999 3823.25000015 -986.10372734 3819.5948019 C-986.35431849 3817.00535756 -986.60491557 3814.41591378 -986.85551643 3811.82647038 C-987.45039176 3805.67960562 -988.04522574 3799.53273688 -988.63986206 3793.385849 C-992.09351523 3757.68710066 -995.55481238 3721.98909248 -999.01761055 3686.2912302 C-1000.19383352 3674.16532305 -1001.36962722 3662.03937456 -1002.54443359 3649.91333008 C-1003.57787968 3639.24637819 -1004.61210134 3628.57950183 -1005.64726341 3617.91271633 C-1006.19275735 3612.2914247 -1006.73786987 3606.67009669 -1007.28204727 3601.04867744 C-1007.79165345 3595.78451291 -1008.3022997 3590.5204503 -1008.81374359 3585.256464 C-1009.00077145 3583.32960465 -1009.18742146 3581.40270857 -1009.37366104 3579.47577286 C-1009.62829917 3576.84174436 -1009.88431058 3574.20785273 -1010.14065552 3571.57398987 C-1010.21351528 3570.81690296 -1010.28637505 3570.05981606 -1010.36144269 3569.27978712 C-1010.70846164 3565.72856259 -1011.0921032 3562.18719693 -1011.54228878 3558.64745331 C-1011.93563375 3555.51292797 -1012.17058787 3552.47061464 -1012.26538086 3549.31616211 C-1012.29889145 3548.26984116 -1012.33240204 3547.2235202 -1012.3669281 3546.14549255 C-1012.39924026 3545.03400345 -1012.43155243 3543.92251434 -1012.46484375 3542.77734375 C-1012.54348781 3540.3561155 -1012.62226848 3537.93489169 -1012.70117188 3535.51367188 C-1012.81957992 3531.74965749 -1012.93604948 3527.98560086 -1013.04956055 3524.22143555 C-1013.9567887 3492.5404752 -1013.9567887 3492.5404752 -1018.9375 3461.3125 C-1021.05675207 3451.36441344 -1022.74899324 3441.49266703 -1023.8125 3431.375 C-1023.92392334 3430.32352783 -1024.03534668 3429.27205566 -1024.15014648 3428.1887207 C-1025.81181083 3411.04991538 -1026.12569892 3393.90907216 -1026.07696915 3376.70228386 C-1026.06523447 3370.77480352 -1026.08625813 3364.84738312 -1026.1015625 3358.91992188 C-1026.11958868 3351.47991947 -1026.12905669 3344.04032401 -1026.09960938 3336.6003418 C-1025.9863995 3304.86111347 -1027.74374828 3274.253979 -1032.77530575 3242.89661884 C-1036.63777837 3218.69042536 -1037.2902162 3194.3549811 -1037.984375 3169.89614868 C-1038.67191274 3146.00773152 -1039.89351002 3122.16803062 -1041.3125 3098.3125 C-1041.39283289 3096.95788729 -1041.39283289 3096.95788729 -1041.47478867 3095.57590866 C-1042.67762135 3075.30609879 -1043.93287726 3055.0395656 -1045.19797707 3034.77356148 C-1048.39429861 2983.56262844 -1050.93450178 2932.48105685 -1051.58621216 2881.1664505 C-1051.86725471 2859.06656163 -1052.22322317 2836.9705249 -1052.75 2814.875 C-1052.76891296 2814.08105583 -1052.78782593 2813.28711166 -1052.80731201 2812.46910858 C-1054.37540153 2747.24367152 -1056.88422754 2682.03802672 -1059.14439011 2616.83372498 C-1060.17556018 2587.08324053 -1061.20642618 2557.33398234 -1061.95043945 2527.57470703 C-1062.02454181 2524.61174891 -1062.10104538 2521.64886976 -1062.17993164 2518.68603516 C-1062.46138739 2508.11495448 -1062.70710538 2497.54336585 -1062.9356277 2486.97101474 C-1062.97810438 2485.01056191 -1063.02100763 2483.05011828 -1063.06436467 2481.08968472 C-1064.12588855 2432.87235999 -1064.14900847 2384.66099559 -1064.13514332 2336.43412109 C-1064.13287874 2328.18290311 -1064.13297006 2319.93168764 -1064.13444519 2311.68046951 C-1064.13465968 2310.47445109 -1064.13487417 2309.26843267 -1064.13509516 2308.02586824 C-1064.13554122 2305.56390645 -1064.135991 2303.10194466 -1064.13644442 2300.63998288 C-1064.14128122 2272.48045223 -1064.13574281 2244.32092615 -1064.12844511 2216.16139673 C-1064.12580181 2205.9127902 -1064.12386213 2195.66418372 -1064.12248993 2185.41557693 C-1064.12239898 2184.73736039 -1064.12230804 2184.05914384 -1064.12221433 2183.36037528 C-1064.1218482 2180.61416883 -1064.12148559 2177.86796239 -1064.1211266 2175.12175594 C-1064.11169232 2103.2627592 -1064.08310732 2031.40377759 -1063.70925713 1684.88900661 C-1063.70748346 1683.79777683 -1063.70748346 1683.79777683 -1063.70567396 1682.68450199 C-1063.69496498 1676.09968115 -1063.68423338 1669.51486035 -1063.67342384 1662.93003968 C-1063.64720564 1646.94453399 -1063.62227435 1630.95902807 -1063.60129547 1614.97351456 C-1063.60035233 1614.25489596 -1063.59940919 1613.53627737 -1063.59843746 1612.79588246 C-1063.59369938 1609.17822372 -1063.5889888 1605.56056494 -1063.58429 1601.94290614 C-1063.55022882 1575.723723 -1063.50961272 1549.50456477 -1063.45741057 1523.28541088 C-1063.43234895 1510.62531007 -1063.41016079 1497.96522219 -1063.3966217 1485.3051033 C-1063.38535816 1474.78654575 -1063.36746776 1464.26802621 -1063.34082042 1453.74949589 C-1063.32760104 1448.45818523 -1063.31732418 1443.16691803 -1063.31578851 1437.87558997 C-1063.30403695 1407.93633394 -1061.836851 1378.71631391 -1057.9375 1349 C-1054.97930307 1326.44131711 -1053.88907168 1304.39113933 -1053.63588333 1281.64347744 C-1052.73397738 1200.95449905 -1049.31046433 1120.37236468 -1042 1040 C-1041.85078094 1038.35756317 -1041.85078094 1038.35756317 -1041.69854736 1036.6819458 C-1034.11237136 953.76324148 -1021.97066218 870.88912178 -1002 790 C-1001.81886658 789.26382446 -1001.63773315 788.52764893 -1001.45111084 787.76916504 C-992.98127929 753.39652342 -983.25148296 719.50897637 -971.70379639 686.04107666 C-971.03459799 684.10033748 -970.36900684 682.15835557 -969.70361328 680.21630859 C-953.01364912 631.68234301 -931.90526257 584.32168818 -906 540 C-905.45891602 539.06285156 -904.91783203 538.12570312 -904.36035156 537.16015625 C-889.57553926 511.59673885 -873.15176715 486.71422276 -855.50830078 463.02929688 C-853.81556114 460.75185241 -852.13956408 458.46259998 -850.46484375 456.171875 C-843.76382373 447.01775503 -836.95521934 437.96219806 -830 429 C-829.18282576 427.93678775 -828.36643085 426.87297609 -827.55078125 425.80859375 C-822.87011441 419.70069209 -818.14889825 413.62702479 -813.38696289 407.58227539 C-809.57187477 402.73654902 -805.78320531 397.8706459 -802 393 C-797.41271232 387.0948894 -792.80942811 381.2030719 -788.18359375 375.328125 C-784.43744195 370.56625275 -780.71709545 365.78457417 -777 361 C-752.22613713 329.12674142 -752.22613713 329.12674142 -741 317 C-740.4740625 316.40832031 -739.948125 315.81664062 -739.40625 315.20703125 C-731.20426359 306.39826524 -720.33775206 299.7834822 -710.34375 293.21484375 C-706.10961914 290.42571485 -701.93231848 287.55347458 -697.75 284.6875 C-697.02458008 284.19072754 -696.29916016 283.69395508 -695.55175781 283.18212891 C-691.88458807 280.66879148 -688.21974396 278.15215271 -684.56005859 275.62792969 C-673.46034032 267.97639125 -662.3021965 260.41282073 -651.125 252.875 C-650.18045959 252.23793121 -649.23591919 251.60086243 -648.26275635 250.94448853 C-625.05250259 235.29695853 -601.61585505 220.02901132 -578 205 C-577.1538916 204.46036621 -576.3077832 203.92073242 -575.43603516 203.36474609 C-562.40346155 195.0564475 -549.22806096 186.99277904 -536 179 C-535.1745166 178.50032715 -534.3490332 178.0006543 -533.49853516 177.48583984 C-510.79673789 163.75322757 -487.90358313 150.36327568 -464.69824219 137.49902344 C-462.31770479 136.17650266 -459.94255529 134.84513299 -457.5703125 133.5078125 C-443.76617947 125.74400196 -429.746725 118.37746137 -415.74414062 110.97998047 C-412.51873095 109.27557281 -409.29788177 107.56272236 -406.078125 105.84765625 C-394.65425671 99.78237377 -383.07795167 94.10117243 -371.37548828 88.59423828 C-368.32835362 87.15508094 -365.28697724 85.70467863 -362.24737549 84.24972534 C-321.76073645 64.88055055 -280.42266343 47.67349002 -238 33 C-236.85128418 32.59716797 -235.70256836 32.19433594 -234.51904297 31.77929688 C-192.60001895 17.11490095 -149.08233132 5.76434576 -105 0 C-103.36538818 -0.22212158 -103.36538818 -0.22212158 -101.69775391 -0.44873047 C-68.43561612 -4.81013146 -33.14296493 -5.50110382 0 0 Z " fill="#FEFEFE" transform="translate(1890,1670)"/>
<path d="M0 0 C1.3722171 0.15272369 1.3722171 0.15272369 2.77215576 0.30853271 C28.11641766 3.14083637 53.29171012 6.55087891 78.34667969 11.31494141 C81.75004649 11.95312954 85.15718338 12.55334436 88.5703125 13.13671875 C109.9142382 16.82985278 130.96080061 21.88161331 152 27 C152.87521301 27.21205078 153.75042603 27.42410156 154.65216064 27.64257812 C240.88890092 48.58037492 326.36183903 82.07971803 414.47607422 131.53076172 C417.09718359 133.05657292 419.73484352 134.54950832 422.37890625 136.03515625 C467.57904307 161.46253641 510.00409495 191.9559057 549.39355469 225.63183594 C551.02954842 227.02516556 552.67412368 228.40779969 554.3203125 229.7890625 C569.14142831 242.27414899 582.91318702 255.82233683 596.625 269.5 C597.2359552 270.10827637 597.8469104 270.71655273 598.47637939 271.34326172 C604.87468619 277.72026879 611.1449819 284.11403869 617 291 C618.61967817 292.77570221 620.24411718 294.54708307 621.875 296.3125 C625.89380593 300.72353173 629.72865324 305.23735358 633.47265625 309.8828125 C635.35047916 312.21237942 637.26024117 314.51257397 639.18359375 316.8046875 C647.90510632 327.22554888 656.06568946 337.97034619 664 349 C664.76111084 350.0509082 664.76111084 350.0509082 665.53759766 351.12304688 C679.46337164 370.3759456 692.18338918 390.39074561 704 411 C704.64630371 412.12486816 704.64630371 412.12486816 705.30566406 413.27246094 C708.27990791 418.47444404 711.16297383 423.72204558 714 429 C714.52174805 429.96969727 715.04349609 430.93939453 715.58105469 431.93847656 C733.06884241 464.62338391 747.66087072 498.62741851 759.5 533.75 C759.7498465 534.48364777 759.99969299 535.21729553 760.2571106 535.97317505 C767.11897742 556.21988274 771.40578965 576.59776914 771.3125 598.0625 C771.31067719 598.73398071 771.30885437 599.40546143 771.30697632 600.09729004 C771.07377457 651.46852137 748.0836569 706.07073455 715 745 C714.19046875 745.99257812 713.3809375 746.98515625 712.546875 748.0078125 C706.33453851 755.53909982 699.64909088 762.53207968 692.75 769.4375 C691.91049805 770.27780762 691.07099609 771.11811523 690.20605469 771.98388672 C685.90639132 776.24532708 681.53153451 780.35136938 676.94335938 784.29956055 C673.48820331 787.32282211 670.19655886 790.51919611 666.875 793.6875 C621.40106596 836.68878578 566.32090088 869.6117964 511.78515625 899.78125 C508.16516908 901.78473491 504.56847177 903.81911349 500.99609375 905.90625 C480.72597361 917.69809696 459.66502513 928.04692122 438.7409668 938.61486816 C436.22148347 939.8880746 433.70321431 941.16363715 431.18554688 942.44042969 C414.11289561 951.09534958 396.93278864 959.46043767 379.51171875 967.39794922 C375.9616885 969.01747776 372.41826153 970.65087988 368.875 972.28515625 C320.66850374 994.44015693 271.89220633 1013.07131665 221 1028 C220.27113083 1028.21389374 219.54226166 1028.42778748 218.79130554 1028.64816284 C206.70764595 1032.19406576 194.6214914 1035.7314281 182.53462219 1039.26637268 C178.91830499 1040.32402135 175.30204125 1041.38185274 171.68577576 1042.43967819 C169.01762188 1043.22014567 166.34944906 1044.00054834 163.68127441 1044.78094482 C160.21628005 1045.79442092 156.75135962 1046.80814919 153.28649902 1047.82208252 C145.96153194 1049.96540396 138.63614384 1052.10715862 131.30761719 1054.23828125 C126.14125862 1055.74121153 120.97879712 1057.25663854 115.82015991 1058.78585815 C114.10393591 1059.29214891 112.38623675 1059.79347375 110.66690063 1060.28909302 C95.77064959 1064.58684856 83.7227949 1070.56120966 72 1081 C70.53240234 1082.30324219 70.53240234 1082.30324219 69.03515625 1083.6328125 C63.9596701 1088.19526789 59.04991505 1092.89911092 54.25 1097.75 C50.63907139 1101.3970379 46.97527358 1104.87911907 43.0703125 1108.20703125 C40.6172589 1110.33146824 38.25296853 1112.54188637 35.875 1114.75 C29.52534595 1120.53115886 22.83716686 1125.80972865 16 1131 C15.1025708 1131.68280029 15.1025708 1131.68280029 14.18701172 1132.37939453 C-8.36195912 1149.44724957 -32.80205432 1163.25522557 -58 1176 C-58.86947266 1176.44279297 -59.73894531 1176.88558594 -60.63476562 1177.34179688 C-105.49629267 1200.02842462 -153.845107 1215.95387083 -202 1230 C-202.81942078 1230.23912109 -203.63884155 1230.47824219 -204.48309326 1230.72460938 C-249.50332161 1243.81916905 -294.74061685 1252.51158986 -341.25 1258.25 C-342.24276947 1258.3750592 -343.23553894 1258.50011841 -344.25839233 1258.62896729 C-377.19470449 1262.74237813 -409.98294686 1263.30007655 -443.12444353 1263.23571944 C-448.74054349 1263.22675536 -454.35664215 1263.22869988 -459.9727478 1263.2290802 C-469.39070043 1263.22815141 -478.80862032 1263.21957531 -488.2265625 1263.20581055 C-499.02446235 1263.1900845 -509.82232652 1263.18481331 -520.62023699 1263.1855461 C-532.25201444 1263.18622813 -543.88377866 1263.17925331 -555.51555204 1263.1700995 C-558.80885718 1263.16799603 -562.10216011 1263.1672622 -565.39546585 1263.16686058 C-604.8885577 1263.1574287 -604.8885577 1263.1574287 -623.88037109 1262.5637207 C-625.10269251 1262.5267039 -626.32501392 1262.4896871 -627.58437538 1262.45154858 C-641.58342785 1261.94722292 -654.50466479 1259.09731095 -667.90258789 1255.1574707 C-679.59871379 1251.77747281 -691.44047086 1250.71838301 -703.53289795 1249.85440063 C-761.68962867 1245.59646655 -818.53404601 1230.35695259 -874 1213 C-874.85573608 1212.7329425 -875.71147217 1212.46588501 -876.59313965 1212.19073486 C-926.53109765 1196.58643727 -975.75788964 1178.55812436 -1023 1156 C-1024.31125844 1155.37722611 -1025.6226236 1154.75467686 -1026.93408203 1154.13232422 C-1080.37771754 1128.7400239 -1127.45462543 1098.41695585 -1169 1056 C-1171.63469872 1053.3475592 -1174.28717614 1050.71770964 -1176.98046875 1048.125 C-1184.4223159 1040.91065811 -1191.02128894 1033.46666725 -1197 1025 C-1197.73605469 1023.97003906 -1198.47210937 1022.94007812 -1199.23046875 1021.87890625 C-1223.86685085 985.55659423 -1235.48063793 938.95144648 -1235.3125 895.5 C-1235.31067719 894.52411926 -1235.30885437 893.54823853 -1235.30697632 892.54278564 C-1235.26165173 878.13665459 -1234.66354609 864.18565671 -1232 850 C-1231.6434595 847.92336081 -1231.28804835 845.84652749 -1230.93359375 843.76953125 C-1222.86905976 798.03634801 -1206.09911931 754.68301526 -1186 713 C-1185.47937988 711.92024902 -1184.95875977 710.84049805 -1184.42236328 709.72802734 C-1176.86055253 694.14228241 -1168.73033341 678.96006716 -1160 664 C-1159.3719043 662.92073242 -1158.74380859 661.84146484 -1158.09667969 660.72949219 C-1144.58620795 637.56773132 -1130.28978671 615.02989597 -1115 593 C-1114.47164551 592.23848633 -1113.94329102 591.47697266 -1113.39892578 590.69238281 C-1093.28668227 561.7870897 -1071.90512263 533.6657321 -1049.08813477 506.84008789 C-1046.15716339 503.38860141 -1043.28285249 499.89781737 -1040.4375 496.375 C-1036.56187067 491.61192782 -1032.48765711 487.06635751 -1028.33203125 482.546875 C-1026.37594748 480.41058251 -1024.45812303 478.25219343 -1022.5625 476.0625 C-1018.8094039 471.74819326 -1014.94445428 467.53862467 -1011.06835938 463.33520508 C-1009.16812025 461.27274675 -1007.27615131 459.20377998 -1005.38964844 457.12866211 C-997.6814985 448.66834371 -989.69262373 440.50640293 -981.59985352 432.41455078 C-979.43151355 430.24400747 -977.27134151 428.0655446 -975.11132812 425.88671875 C-967.70910173 418.45475858 -960.26515004 411.47088621 -952 405 C-949.64472536 403.02511456 -947.32233521 401.01343936 -945 399 C-940.8764081 395.44424699 -936.72787185 391.93203715 -932.5 388.5 C-927.09637098 384.11054182 -921.81961545 379.58317191 -916.54296875 375.04296875 C-911.59441284 370.78648075 -906.6052146 366.57832994 -901.61767578 362.36767578 C-899.97091021 360.97540583 -898.32689933 359.57994527 -896.68359375 358.18359375 C-891.67765348 353.93259941 -886.6595962 349.70435708 -881.5625 345.5625 C-876.14429421 341.15086945 -870.8472915 336.60676358 -865.55078125 332.05078125 C-858.31183876 325.82477633 -851.04134091 319.6391376 -843.625 313.625 C-838.50266476 309.45843577 -833.52582622 305.13798719 -828.54956055 300.79956055 C-824.03271492 296.87064551 -819.43945993 293.05378824 -814.78125 289.29296875 C-812.76988723 287.63472444 -810.79882003 285.9601832 -808.84375 284.23828125 C-792.62517819 269.97255788 -774.57826187 258.17710476 -756.68591309 246.13586426 C-754.97839916 244.98544668 -753.27266347 243.83243592 -751.56738281 242.67871094 C-738.79002363 234.03743934 -725.94969566 225.59866157 -712.65234375 217.76953125 C-708.05328816 215.05516234 -703.55733549 212.19505755 -699.0625 209.3125 C-672.21183132 192.18392052 -644.18794479 176.75487252 -616.14404297 161.69335938 C-612.95679304 159.97672903 -609.77681892 158.24718043 -606.59765625 156.515625 C-577.92795329 140.95466245 -548.70931575 126.46793379 -519 113 C-517.88028809 112.48840332 -516.76057617 111.97680664 -515.60693359 111.44970703 C-435.8537658 75.02120486 -353.22767908 45.06650425 -192.40036011 14.61404419 C-174.20819776 14.17797757 -157.48096077 13.00473624 -140.29223633 6.62744141 C-131.97760881 3.54613346 -123.73189862 1.50525946 -115 0 C-113.77313477 -0.22429687 -113.77313477 -0.22429687 -112.52148438 -0.453125 C-76.02885 -6.81397487 -36.66172641 -4.13130984 0 0 Z " fill="#FDFDFD" transform="translate(1938,327)"/>
<path d="M0 0 C-1.22029907 35.59906956 -11.87626698 69.63958956 -22.59765625 103.3828125 C-32.80210642 135.51116122 -41.44382734 167.35022619 -47.85897827 200.44412231 C-50.89928277 216.10824485 -54.4136708 231.62189807 -58.1875 247.125 C-58.44805176 248.19691589 -58.70860352 249.26883179 -58.97705078 250.37322998 C-59.98566136 254.52034464 -60.9956976 258.66710781 -62.00799561 262.81332397 C-72.48708047 305.75763766 -79.4113755 349.31503578 -86 393 C-86.14395203 393.95422852 -86.28790405 394.90845703 -86.43621826 395.89160156 C-95.42580527 455.79859051 -101.46797728 516.23388821 -106.46792126 576.59239674 C-106.89106454 581.70006388 -107.32078916 586.80714938 -107.75292969 591.9140625 C-113.13345631 655.60786916 -117.82674682 719.38903 -119.81225586 783.28881836 C-119.93950464 787.30618159 -120.08921078 791.32206419 -120.25219727 795.33813477 C-120.73137449 807.22413165 -121.09042143 819.10111004 -121.24609375 830.99609375 C-121.26280121 832.26222504 -121.27950867 833.52835632 -121.29672241 834.83285522 C-121.36223935 839.9914668 -121.42442846 845.1500749 -121.47680664 850.30883789 C-121.72606548 873.93767995 -122.94284222 897.39395247 -125.68930054 920.8692627 C-127.25495952 934.31009759 -128.57342898 947.76457346 -129.6875 961.25 C-129.74807587 961.97541992 -129.80865173 962.70083984 -129.87106323 963.44824219 C-131.31962699 980.89176882 -132.14870609 998.19033699 -132.12863445 1015.69108963 C-132.12998368 1017.74220095 -132.13176902 1019.79331203 -132.13394669 1021.84442264 C-132.13865072 1027.46085001 -132.13718342 1033.07726107 -132.13466892 1038.69368922 C-132.13302967 1044.81303476 -132.13718192 1050.93237689 -132.14057809 1057.05172133 C-132.14572434 1067.77250994 -132.14718546 1078.4932934 -132.14612198 1089.21408272 C-132.14499559 1100.71423782 -132.14603836 1112.21438969 -132.14969444 1123.7145443 C-132.1499241 1124.44230201 -132.15015375 1125.17005973 -132.15039036 1125.91987071 C-132.15133209 1128.88433627 -132.15228778 1131.84880182 -132.15326155 1134.81326736 C-132.16340005 1165.72425734 -132.16646752 1196.63524551 -132.16705366 1227.54623696 C-132.16711842 1230.87411847 -132.16718636 1234.20199997 -132.16725707 1237.52988148 C-132.16728258 1238.76887429 -132.16728258 1238.76887429 -132.1673086 1240.03289726 C-132.16771785 1258.37437556 -132.16991058 1276.71585351 -132.17241292 1295.05733162 C-132.17344146 1302.62243553 -132.1744315 1310.18753944 -132.17542917 1317.75264335 C-132.17553975 1318.58874123 -132.17565034 1319.42483911 -132.17576428 1320.2862733 C-132.18208992 1368.2126091 -132.18621338 1416.13894467 -132.18575573 1464.06528091 C-132.18573995 1465.85882507 -132.18572422 1467.65236922 -132.18570852 1469.44591337 C-132.18563515 1477.54241226 -132.18554698 1485.63891114 -132.18545464 1493.73541002 C-132.18541351 1497.34528658 -132.18537337 1500.95516314 -132.18533332 1504.5650397 C-132.18531293 1506.37185709 -132.18529191 1508.17867449 -132.18527026 1509.98549188 C-132.18459246 1566.91497252 -132.19186416 1623.8444469 -132.20581055 1680.77392578 C-132.20931264 1695.07710391 -132.21278259 1709.38028205 -132.21607494 1723.68346024 C-132.21637925 1725.00517326 -132.21637925 1725.00517326 -132.21668971 1726.35358755 C-132.22292799 1753.61503177 -132.22667488 1780.87647548 -132.22793293 1808.13792038 C-132.22797288 1808.99693609 -132.22801283 1809.85595181 -132.22805399 1810.7409983 C-132.22890829 1829.62186069 -132.22916813 1848.50272306 -132.22888362 1867.38358547 C-132.22878716 1874.144855 -132.2287351 1880.90612454 -132.22870489 1887.66739407 C-132.22869697 1889.34900517 -132.22868677 1891.03061626 -132.22867426 1892.71222736 C-132.22849949 1919.27182466 -132.23413337 1945.83141655 -132.24282808 1972.3910123 C-132.25157677 1999.25319038 -132.25358713 2026.11536106 -132.24706676 2052.97753997 C-132.24615513 2056.73428213 -132.24531168 2060.49102431 -132.24450874 2064.24776649 C-132.24434866 2064.98384286 -132.24418857 2065.71991922 -132.24402363 2066.47830093 C-132.24185762 2077.19959349 -132.2451659 2087.92087383 -132.2518692 2098.64216423 C-132.28975958 2161.21080061 -131.85523672 2223.72986166 -130.39333317 2286.28258794 C-129.76177436 2313.52988585 -129.65744378 2340.77953598 -129.68432617 2368.03320312 C-129.68931932 2373.60423672 -129.68211483 2379.17508726 -129.66381836 2384.74609375 C-129.55560216 2418.48468206 -130.05204873 2452.07446423 -132.61604309 2485.73480225 C-132.66617459 2486.39443844 -132.7163061 2487.05407463 -132.76795673 2487.7336998 C-133.08533508 2490.83344332 -133.55933825 2493.91536775 -134 2497 C-142.91 2497 -151.82 2497 -161 2497 C-163.11823744 2492.76352512 -163.82002194 2488.9623604 -164.515625 2484.34985352 C-164.65176208 2483.48035254 -164.78789917 2482.61085155 -164.92816162 2481.71500206 C-165.37646165 2478.83326453 -165.81384223 2475.95000495 -166.25 2473.06640625 C-166.40339844 2472.06530886 -166.55679687 2471.06421146 -166.71484375 2470.03277779 C-169.97923124 2448.72372074 -172.86297066 2427.36988747 -175.60796356 2405.98850632 C-176.01109772 2402.8511325 -176.41615131 2399.71401106 -176.82159424 2396.57693481 C-187.895852 2310.82500691 -198.06466316 2224.95422316 -239.34326172 1839.02075195 C-239.89078422 1833.14655595 -240.45433352 1827.27409938 -241.02734375 1821.40234375 C-243.00630625 1800.99459694 -244.69796483 1780.57442464 -246.1875 1760.125 C-246.31437698 1758.39623123 -246.31437698 1758.39623123 -246.44381714 1756.63253784 C-246.68871939 1753.27870515 -246.92923643 1749.92458957 -247.16796875 1746.5703125 C-247.23759827 1745.61215134 -247.30722778 1744.65399017 -247.37896729 1743.66679382 C-247.60408029 1740.4454497 -247.80503409 1737.22331343 -248 1734 C-248.04270334 1733.33559025 -248.08540668 1732.6711805 -248.12940407 1731.98663712 C-249.28336022 1713.60443646 -249.20137649 1695.1990928 -249.23828125 1676.7890625 C-249.24234617 1675.03909671 -249.24646348 1673.28913104 -249.25063133 1671.5391655 C-249.26962555 1663.281807 -249.28385293 1655.02445695 -249.2922433 1646.7670809 C-249.30095802 1638.34170488 -249.32008643 1629.91651425 -249.35668945 1621.49121094 C-249.53946394 1578.47139743 -249.24947778 1535.85480572 -245 1493 C-244.84795995 1491.43112855 -244.69608424 1489.86224115 -244.54440308 1488.29333496 C-243.62280795 1478.86367268 -242.5523375 1469.45393195 -241.41918945 1460.04760742 C-239.82827248 1446.68607476 -238.77217876 1433.39605475 -238.43823242 1419.94433594 C-238.41810719 1419.18226275 -238.39798195 1418.42018955 -238.37724686 1417.63502324 C-237.8578466 1397.73442798 -237.79527406 1377.83055905 -237.72960854 1357.92432094 C-237.71099542 1352.63707741 -237.68674122 1347.34985971 -237.66296387 1342.06263733 C-237.5986958 1327.55827184 -237.54273074 1313.0538769 -237.48697662 1298.54947662 C-237.43565286 1285.21944257 -237.38241555 1271.8894228 -237.32245111 1258.55942446 C-237.29916686 1253.33915675 -237.27756996 1248.11889499 -237.26036072 1242.89860344 C-237.19584322 1223.44424297 -237.09255265 1203.99753614 -236.53662109 1184.55004883 C-236.51688453 1183.84697346 -236.49714796 1183.14389808 -236.47681332 1182.4195174 C-236.12424803 1170.19272192 -235.40093209 1158.00970326 -234.38037109 1145.82128906 C-234.11885305 1142.67607203 -233.87719315 1139.52970196 -233.63671875 1136.3828125 C-233.46990003 1134.31240702 -233.30197511 1132.24209029 -233.1328125 1130.171875 C-233.06393829 1129.26540222 -232.99506409 1128.35892944 -232.92410278 1127.42498779 C-232.46330775 1122.09153813 -231.60937815 1116.98508393 -230.47973633 1111.75024414 C-228.89668383 1104.09532272 -228.409225 1096.61917784 -228.19140625 1088.82421875 C-228.14056231 1087.34186619 -228.08859626 1085.85955178 -228.03562927 1084.37727356 C-227.92340393 1081.17130417 -227.81892458 1077.96521022 -227.72045898 1074.75878906 C-227.56086445 1069.57177813 -227.38201672 1064.38552592 -227.20117188 1059.19921875 C-226.78370843 1047.13336618 -226.39151601 1035.06671779 -226 1023 C-225.46909171 1006.64688349 -224.93395958 990.29393835 -224.38168812 973.94152737 C-224.12747858 966.39206156 -223.88403311 958.84234961 -223.64904881 951.29226208 C-223.49787995 946.50530748 -223.33755484 941.71868756 -223.17509651 936.93210411 C-223.10178911 934.71793453 -223.03212613 932.5036403 -222.9666729 930.28922462 C-222.37661372 910.44596202 -220.82082528 890.60356046 -216.5 871.1875 C-214.92991889 863.68770656 -213.42879357 856.19723739 -212.25 848.625 C-212.13462891 847.92656982 -212.01925781 847.22813965 -211.90039062 846.50854492 C-209.98670408 833.69989292 -209.9364124 820.64389079 -210 807.72265625 C-210.09345281 778.28351865 -207.62401992 750.59962486 -201.89723206 721.73815918 C-199.70445865 710.67191418 -197.84470846 699.55606714 -195.99758911 688.42779541 C-195.07070458 682.85860971 -194.12639298 677.29240858 -193.1796875 671.7265625 C-192.90424858 670.10698135 -192.90424858 670.10698135 -192.62324524 668.4546814 C-190.67505032 657.03748628 -188.62695975 645.63862026 -186.57736206 634.23928833 C-183.34290918 616.2185917 -180.34176575 598.16124221 -177.35476685 580.09811401 C-174.52395891 562.99071303 -171.59809482 545.90593309 -168.52050781 528.84130859 C-165.53284049 512.2515737 -162.74993297 495.63064604 -160 479 C-156.95609877 460.59153531 -153.83210306 442.20346353 -150.52050781 423.84130859 C-147.53284049 407.2515737 -144.74993297 390.63064604 -142 374 C-138.95622942 355.59232545 -135.85162188 337.20078372 -132.51748657 318.84332275 C-130.43602077 307.38078896 -128.48603863 295.90590494 -126.66796875 284.3984375 C-121.9127577 254.43666632 -116.34552857 225.17398758 -108 196 C-107.54521974 194.39202693 -107.09079116 192.78395435 -106.63671875 191.17578125 C-103.58242836 180.40092159 -100.35890242 169.68366126 -97 159 C-96.76323547 158.24609985 -96.52647095 157.49219971 -96.28253174 156.7154541 C-80.89064649 107.85566549 -62.40267527 55.33458375 -26 18 C-25.41089844 17.34902344 -24.82179688 16.69804687 -24.21484375 16.02734375 C-19.16392943 10.57930595 -7.88574635 0 0 0 Z " fill="#030303" transform="translate(1423,2401)"/>
<path d="M0 0 C1.48500371 3.90838031 0.48854346 6.73311204 -0.625 10.66796875 C-1.00236827 12.03193512 -1.37955728 13.3959511 -1.7565918 14.76000977 C-1.95924652 15.47971954 -2.16190125 16.19942932 -2.37069702 16.94094849 C-9.31095885 41.71702017 -14.54084353 66.61303636 -18.3125 92.0625 C-18.43587738 92.88525421 -18.55925476 93.70800842 -18.68637085 94.55569458 C-22.07650041 117.40563177 -23.38365404 140.09561468 -23.3125 163.1875 C-23.31026428 164.99127106 -23.31026428 164.99127106 -23.3079834 166.83148193 C-23.26817309 184.72383852 -22.84217662 202.30085316 -20 220 C-19.85546387 220.92603027 -19.71092773 221.85206055 -19.56201172 222.80615234 C-18.5771603 228.91921127 -17.36480321 234.96116702 -16 241 C-15.68506592 242.40378906 -15.68506592 242.40378906 -15.36376953 243.8359375 C-10.20607159 266.42942624 -3.21244886 288.17203512 7 309 C7.38913574 309.79744629 7.77827148 310.59489258 8.17919922 311.41650391 C19.76488667 334.89638748 35.28980295 356.54946448 52.50390625 376.23291016 C53.64590005 377.58175989 54.75776323 378.95617755 55.85546875 380.34130859 C61.67330857 387.65756183 67.98230766 394.29089247 74.61035156 400.87109375 C76.37280238 402.62281575 78.12428568 404.38499428 79.875 406.1484375 C86.61145804 412.89276558 93.52593981 419.07396019 101 425 C102.10202445 425.93454812 103.19834467 426.87592825 104.28515625 427.828125 C170.208362 485.31390217 258.4063578 514.85142409 354.5625 530.8125 C356.30773453 531.09626999 356.30773453 531.09626999 358.08822632 531.38577271 C387.47407467 536.12964505 416.91239623 538.73361675 446.58056641 540.80224609 C450.13311181 541.05048171 453.68487637 541.30818427 457.23635101 541.5712738 C459.1846721 541.7128668 461.13374294 541.84402601 463.08282471 541.97473145 C475.04454372 542.86410959 486.78678728 544.72375871 498 549.125 C499.37252863 549.65488393 500.74752234 550.1784304 502.125 550.6953125 C502.70507812 550.92234863 503.28515625 551.14938477 503.8828125 551.38330078 C509.59804165 553.0480458 515.48318472 553.1628211 521.39331055 553.20874023 C522.20457397 553.21852402 523.0158374 553.2283078 523.85168457 553.23838806 C526.53001341 553.26820852 529.20829107 553.28972803 531.88671875 553.30859375 C532.81726389 553.31516558 533.74780903 553.3217374 534.70655251 553.32850838 C539.66283267 553.36109346 544.61909196 553.38550948 549.57543945 553.4050293 C553.59856544 553.42258108 557.6209554 553.45696603 561.64379883 553.50756836 C586.442013 553.81210103 609.96415149 552.68868217 634.29818726 547.74266052 C639.9297111 546.61285987 645.58889563 545.6554423 651.25 544.6875 C652.1769165 544.52201157 653.10383301 544.35652313 654.05883789 544.1860199 C665.27628533 542.19813139 676.65655847 541.96350816 688.01953125 541.859375 C688.89678864 541.84969193 689.77404602 541.84000885 690.67788696 541.83003235 C698.03887351 541.75014212 698.03887351 541.75014212 701.47045898 541.74951172 C728.62064093 541.71452759 754.79994902 534.58932448 781.0625 528.375 C826.10848357 517.72140173 826.10848357 517.72140173 837 518 C801.87893313 568.73042992 728.651608 584.79419762 671.99621582 596.58331299 C670.15507839 596.96762918 668.3152663 597.35828016 666.47558594 597.74951172 C647.49554678 601.7650712 628.33351071 604.33519776 609.09509277 606.73828125 C607.18197216 606.97726806 605.26919005 607.21896068 603.35644531 607.4609375 C588.93840527 609.26053979 574.48422255 610.50917586 560 611.625 C559.20306732 611.68762024 558.40613464 611.75024048 557.58505249 611.8147583 C507.2520049 615.72827281 456.15846579 615.96457505 406 610 C404.6694458 609.84371124 404.6694458 609.84371124 403.31201172 609.68426514 C335.11371919 601.62421344 267.64999453 587.66825512 200.91149902 571.69598389 C198.08663795 571.0207105 195.26073709 570.34996061 192.43457031 569.68017578 C114.44679446 551.14794997 37.13725622 520.99705453 -29 475 C-29.63035156 474.56510254 -30.26070312 474.13020508 -30.91015625 473.68212891 C-41.4919067 466.37132608 -51.68386317 458.6867362 -61.70458984 450.62939453 C-68.35361886 445.29160179 -75.07132684 440.17009137 -82.125 435.375 C-93.50300225 427.63937088 -104.03774289 419.47906632 -114 410 C-114.70769531 409.35675781 -115.41539062 408.71351563 -116.14453125 408.05078125 C-140.9420394 384.7683958 -158.57088879 344.01392889 -160.12597656 310.26611328 C-161.3932179 261.04421418 -143.72776291 218.1580836 -122.125 174.8125 C-121.62533722 173.80681976 -121.12567444 172.80113953 -120.61087036 171.76498413 C-113.20751024 156.89994347 -105.29851565 142.38306345 -97 128 C-96.52298141 127.17049835 -96.04596283 126.3409967 -95.55448914 125.48635864 C-75.47094844 90.57699821 -50.54678608 58.36705685 -24.24072266 27.94189453 C-21.24151656 24.46886763 -18.31637942 20.94931033 -15.4375 17.375 C-10.54868239 11.34485916 -5.29535384 5.67147243 0 0 Z " fill="#030303" transform="translate(954,928)"/>
</svg>
